<svg width="88" height="27" viewBox="0 0 88 27" fill="none" xmlns="http://www.w3.org/2000/svg">
<path d="M13.5118 7.98157L15.2053 14.9753H10.7921L12.5049 7.98157H13.5118Z" fill="#2761CE"/>
<path d="M0 3.09572V22.9228C0 24.6333 1.38515 26.0185 3.09551 26.0185H22.9213C24.6316 26.0185 26.0168 24.6333 26.0168 22.9228V3.09572C26.0168 1.38525 24.6316 0 22.9213 0H3.09551C1.38515 0 0 1.38525 0 3.09572ZM16.393 19.9114L15.6486 16.9482H10.3489L9.60453 19.9114H7.3666L10.7729 6.10472H15.2246L18.6502 19.9114H16.393Z" fill="#2761CE"/>
<path d="M33.7046 5.77725H39.3001C40.8066 5.77725 41.9329 6.08377 42.6789 6.6968C43.425 7.29557 43.798 8.25789 43.798 9.58375C43.798 10.4534 43.6546 11.1377 43.3676 11.6367C43.095 12.1357 42.6574 12.5491 42.0548 12.877C43.4609 13.4188 44.1639 14.5522 44.1639 16.2772C44.1639 19.043 42.6 20.4258 39.4723 20.4258H33.7046V5.77725ZM39.3001 14.0318H36.0934V18.3729H39.3432C40.1323 18.3729 40.7205 18.209 41.1079 17.8811C41.5096 17.5532 41.7105 16.99 41.7105 16.1917C41.7105 15.3933 41.4809 14.8373 41.0218 14.5236C40.5627 14.1957 39.9888 14.0318 39.3001 14.0318ZM39.171 7.83019H36.0934V12.0216H39.2571C40.6631 12.0216 41.3661 11.3017 41.3661 9.86175C41.3661 8.50738 40.6344 7.83019 39.171 7.83019Z" fill="#2761CE"/>
<path d="M47.1834 10.8882C47.9295 9.96155 49.1634 9.49821 50.8851 9.49821C52.6068 9.49821 53.8335 9.96155 54.5652 10.8882C55.3113 11.8149 55.6843 13.2049 55.6843 15.0583C55.6843 16.9116 55.3256 18.3088 54.6083 19.2497C53.8909 20.1906 52.6498 20.6611 50.8851 20.6611C49.1203 20.6611 47.8793 20.1906 47.1619 19.2497C46.4445 18.3088 46.0859 16.9116 46.0859 15.0583C46.0859 13.2049 46.4517 11.8149 47.1834 10.8882ZM48.9482 17.8383C49.2782 18.4085 49.9238 18.6937 50.8851 18.6937C51.8464 18.6937 52.492 18.4085 52.822 17.8383C53.152 17.268 53.317 16.3342 53.317 15.0369C53.317 13.7395 53.1376 12.82 52.779 12.2782C52.4346 11.7365 51.8033 11.4656 50.8851 11.4656C49.9669 11.4656 49.3284 11.7365 48.9697 12.2782C48.6254 12.82 48.4532 13.7395 48.4532 15.0369C48.4532 16.3342 48.6182 17.268 48.9482 17.8383Z" fill="#2761CE"/>
<path d="M58.5956 10.8882C59.3416 9.96155 60.5755 9.49821 62.2972 9.49821C64.0189 9.49821 65.2456 9.96155 65.9774 10.8882C66.7234 11.8149 67.0965 13.2049 67.0965 15.0583C67.0965 16.9116 66.7378 18.3088 66.0204 19.2497C65.303 20.1906 64.062 20.6611 62.2972 20.6611C60.5325 20.6611 59.2914 20.1906 58.5741 19.2497C57.8567 18.3088 57.498 16.9116 57.498 15.0583C57.498 13.2049 57.8639 11.8149 58.5956 10.8882ZM60.3603 17.8383C60.6903 18.4085 61.3359 18.6937 62.2972 18.6937C63.2585 18.6937 63.9041 18.4085 64.2341 17.8383C64.5641 17.268 64.7291 16.3342 64.7291 15.0369C64.7291 13.7395 64.5498 12.82 64.1911 12.2782C63.8468 11.7365 63.2155 11.4656 62.2972 11.4656C61.379 11.4656 60.7405 11.7365 60.3818 12.2782C60.0375 12.82 59.8653 13.7395 59.8653 15.0369C59.8653 16.3342 60.0303 17.268 60.3603 17.8383Z" fill="#2761CE"/>
<path d="M71.7725 20.4258H69.4266V5.2854H71.7725V14.0318L73.1068 13.9035L75.6463 9.73344H78.2719L75.1728 14.7375L78.444 20.4258H75.7969L73.1713 15.9137L71.7725 16.0633V20.4258Z" fill="#2761CE"/>
<path d="M87.6341 11.9361C85.9411 11.708 84.7144 11.5939 83.954 11.5939C83.1936 11.5939 82.6627 11.6866 82.3614 11.8719C82.0745 12.043 81.931 12.321 81.931 12.7059C81.931 13.0909 82.0888 13.3617 82.4044 13.5186C82.7344 13.6754 83.4949 13.8607 84.6857 14.0746C85.8909 14.2741 86.7446 14.5949 87.2467 15.0369C87.7489 15.4788 88 16.2629 88 17.3892C88 18.5155 87.6341 19.3424 86.9024 19.8698C86.185 20.3973 85.1305 20.6611 83.7388 20.6611C82.8636 20.6611 81.7588 20.5399 80.4245 20.2975L79.7573 20.1906L79.8434 18.2446C81.5651 18.4727 82.8062 18.5868 83.5666 18.5868C84.327 18.5868 84.865 18.4941 85.1807 18.3088C85.5107 18.1234 85.6757 17.8169 85.6757 17.3892C85.6757 16.9615 85.5178 16.6692 85.2022 16.5124C84.9009 16.3413 84.162 16.1631 82.9855 15.9778C81.8234 15.7782 80.9697 15.4717 80.4245 15.0583C79.8793 14.6448 79.6067 13.8892 79.6067 12.7915C79.6067 11.6937 79.9797 10.874 80.7258 10.3322C81.4862 9.79047 82.4547 9.51959 83.6312 9.51959C84.5494 9.51959 85.6757 9.63365 87.01 9.86175L87.6771 9.99006L87.6341 11.9361Z" fill="#2761CE"/>
</svg>
