<svg width="172" height="172" viewBox="0 0 172 172" fill="none" xmlns="http://www.w3.org/2000/svg">
<g clip-path="url(#clip0_510_4)">
<path d="M151.532 0H20.468C9.16378 0 0 9.16378 0 20.468V151.532C0 162.836 9.16378 172 20.468 172H151.532C162.836 172 172 162.836 172 151.532V20.468C172 9.16378 162.836 0 151.532 0ZM108.384 131.633L103.458 112.048H68.413L63.4887 131.633C55.9637 131.633 50.4358 124.574 52.2386 117.269L71.2144 40.3674H100.657L105.966 61.7687C107.747 68.9417 102.319 75.8791 94.9297 75.8791L89.3349 52.761H82.6699L77.0098 75.8791L73.9743 88.2742L71.3497 98.994H100.523L97.9285 88.2742H103.651C108.876 88.2742 113.429 91.8353 114.687 96.9077L123.305 131.633H108.384Z" fill="#3076E0"/>
</g>
<defs>
<clipPath id="clip0_510_4">
<rect width="172" height="172" fill="white"/>
</clipPath>
</defs>
</svg>
