<svg width="537" height="172" viewBox="0 0 537 172" fill="none" xmlns="http://www.w3.org/2000/svg">
<g clip-path="url(#clip0_510_14)">
<path d="M151.54 0H20.4663C9.1636 0 0 9.16324 0 20.4655V151.534C0 162.837 9.1636 172 20.4663 172H151.54C162.843 172 172.007 162.837 172.007 151.534V20.4655C172.007 9.16324 162.843 0 151.54 0ZM108.394 131.629L103.471 112.042H68.4234L63.5007 131.629C55.9718 131.629 50.4512 124.568 52.254 117.263L71.2351 40.3612H100.678L105.993 61.7608C107.777 68.9345 102.35 75.8747 94.9521 75.8747L89.3568 52.7564H82.6872L77.0265 75.8747L73.9907 88.2698L71.3658 98.9929H100.538L97.9412 88.2698H103.667C108.889 88.2698 113.447 91.8286 114.708 96.9006L123.33 131.629H108.413H108.394Z" fill="#3076E0"/>
<path d="M240.411 64.3482C249.556 64.3482 256.151 66.8982 260.196 72.0076C264.24 77.117 266.258 86.1495 266.258 99.1237C266.258 112.098 263.857 121.13 259.066 126.24C254.264 131.349 245.829 133.899 233.751 133.899C229.576 133.899 222.962 133.498 213.901 132.704L209.371 132.302V38.1008H223.756V68.346C229.884 65.6839 235.433 64.3482 240.411 64.3482ZM233.751 120.972C240.86 120.972 245.586 119.309 247.94 115.974C250.294 112.64 251.471 106.979 251.471 98.9836C251.471 90.9879 250.472 85.3742 248.473 82.1329C246.474 78.8917 243.214 77.2664 238.683 77.2664C234.424 77.2664 230.155 77.9296 225.895 79.2653L223.766 79.9285V120.43C228.651 120.785 231.976 120.962 233.761 120.962L233.751 120.972Z" fill="#3076E0"/>
<path d="M284.445 73.0071C289.022 67.2345 296.635 64.3482 307.294 64.3482C317.952 64.3482 325.565 67.2345 330.142 73.0071C334.719 78.7796 337.008 87.4385 337.008 98.9836C337.008 110.529 334.784 119.234 330.347 125.1C325.901 130.966 318.223 133.89 307.294 133.89C296.364 133.89 288.686 130.957 284.24 125.1C279.793 119.234 277.58 110.538 277.58 98.9836C277.58 87.4291 279.868 78.7796 284.445 73.0071ZM295.3 116.311C297.345 119.86 301.343 121.644 307.294 121.644C313.244 121.644 317.242 119.869 319.288 116.311C321.333 112.761 322.351 106.942 322.351 98.8528C322.351 90.7638 321.258 85.0379 319.091 81.6659C316.915 78.2939 312.982 76.6032 307.303 76.6032C301.624 76.6032 297.691 78.2939 295.514 81.6659C293.338 85.0379 292.254 90.7731 292.254 98.8528C292.254 106.933 293.273 112.752 295.318 116.311H295.3Z" fill="#3076E0"/>
<path d="M355.064 73.0071C359.641 67.2345 367.254 64.3482 377.912 64.3482C388.57 64.3482 396.183 67.2345 400.76 73.0071C405.337 78.7796 407.626 87.4385 407.626 98.9836C407.626 110.529 405.403 119.234 400.966 125.1C396.52 130.966 388.841 133.89 377.912 133.89C366.983 133.89 359.305 130.957 354.858 125.1C350.412 119.234 348.198 110.538 348.198 98.9836C348.198 87.4291 350.487 78.7796 355.064 73.0071ZM365.918 116.311C367.964 119.86 371.962 121.644 377.912 121.644C383.862 121.644 387.86 119.869 389.906 116.311C391.952 112.761 392.97 106.942 392.97 98.8528C392.97 90.7638 391.877 85.0379 389.71 81.6659C387.533 78.2939 383.601 76.6032 377.921 76.6032C372.242 76.6032 368.309 78.2939 366.133 81.6659C363.957 85.0379 362.873 90.7731 362.873 98.8528C362.873 106.933 363.891 112.752 365.937 116.311H365.918Z" fill="#3076E0"/>
<path d="M436.537 132.433H422.011V38.1008H436.537V92.5945L444.794 91.7912L460.515 65.8147H476.769L457.582 96.994L477.834 132.433H461.449L445.196 104.317L436.537 105.251V132.433Z" fill="#3076E0"/>
<path d="M534.73 79.5362C524.249 78.1164 516.655 77.4065 511.947 77.4065C507.239 77.4065 503.97 77.9576 502.158 79.0692C500.336 80.1807 499.43 81.9368 499.43 84.328C499.43 86.7192 500.43 88.4099 502.429 89.3907C504.428 90.3715 509.136 91.5017 516.552 92.7907C523.969 94.0797 529.228 96.0973 532.339 98.8528C535.449 101.608 537 106.494 537 113.508C537 120.523 534.758 125.679 530.274 128.967C525.791 132.255 519.233 133.899 510.621 133.899C505.203 133.899 498.365 133.143 490.098 131.629L485.97 130.966L486.502 118.842C497.16 120.262 504.839 120.972 509.556 120.972C514.273 120.972 517.617 120.393 519.616 119.244C521.615 118.095 522.615 116.18 522.615 113.518C522.615 110.856 521.662 109.006 519.747 107.988C517.832 106.97 513.264 105.858 506.025 104.653C498.786 103.458 493.48 101.571 490.108 98.9929C486.726 96.4149 485.045 91.7072 485.045 84.8698C485.045 78.0324 487.38 72.923 492.041 69.551C496.703 66.179 502.681 64.4883 509.958 64.4883C515.637 64.4883 522.615 65.1982 530.872 66.618L535.001 67.4213L534.73 79.5456V79.5362Z" fill="#3076E0"/>
</g>
<defs>
<clipPath id="clip0_510_14">
<rect width="537" height="172" fill="white"/>
</clipPath>
</defs>
</svg>
