<svg xmlns="http://www.w3.org/2000/svg" viewBox="0 0 500 500"><g id="freepik--Floor--inject-2"><path id="freepik--floor--inject-2" d="M77.66,234c-95.18,55-95.17,144,0,199s249.49,55,344.67,0,95.17-144,0-199S172.84,179.07,77.66,234Z" style="fill:#fafafa"></path></g><g id="freepik--Shadows--inject-2"><path id="freepik--Shadow--inject-2" d="M254,209.48c11,6.43,11,16.85,0,23.28s-28.86,6.43-39.87,0-11-16.85,0-23.28S243,203.05,254,209.48Z" style="fill:#ebebeb"></path><path id="freepik--shadow--inject-2" d="M146.22,314.17l94.53-54.47a1.28,1.28,0,0,0,0-2.43L151.91,205.9a4.66,4.66,0,0,0-4.21,0L53.17,260.38a1.28,1.28,0,0,0,0,2.42L142,314.17A4.66,4.66,0,0,0,146.22,314.17Z" style="fill:#e0e0e0"></path><path id="freepik--shadow--inject-2" d="M415.74,303.53,461.69,277c1.82-1.05,1.82-2.76,0-3.81l-117.9-68.06a7.27,7.27,0,0,0-6.58,0l-45.95,26.52c-1.82,1.05-1.82,2.76,0,3.81l117.89,68.06A7.29,7.29,0,0,0,415.74,303.53Z" style="fill:#e0e0e0"></path><path id="freepik--shadow--inject-2" d="M465.85,347.91,219.71,490.39a6.53,6.53,0,0,1-5.93,0l-148.63-86c-1.64-.95-1.64-2.49,0-3.43L311.73,258.56a6.56,6.56,0,0,1,5.93,0l148.19,85.9C467.48,345.42,467.48,347,465.85,347.91Z" style="fill:#e0e0e0"></path><path id="freepik--shadow--inject-2" d="M46.07,305.9c-16,9.24-16,24.23,0,33.48s42,9.24,58,0,16-24.24,0-33.48S62.08,296.65,46.07,305.9Z" style="fill:#e0e0e0"></path></g><g id="freepik--Window--inject-2"><g id="freepik--window--inject-2"><g id="freepik--window--inject-2"><g id="freepik--Frame--inject-2"><polygon points="127.7 23.77 129.97 25.04 129.97 117.62 127.7 116.35 127.7 23.77" style="fill:#fafafa"></polygon><polygon points="127.7 116.35 127.7 26.35 36.64 78.92 36.66 168.92 127.7 116.35" style="fill:#fff"></polygon><path d="M134.18,120.05V17.74L32.43,76.49V178.8ZM36.64,171.5V78.92L130,25v92.58Z" style="fill:#f0f0f0"></path><polygon points="129.97 117.62 127.7 116.35 36.66 168.92 36.64 171.5 129.97 117.62" style="fill:#e0e0e0"></polygon><polygon points="104.55 39.71 106.82 38.4 106.82 130.98 104.55 129.72 104.55 39.71" style="fill:#fafafa"></polygon><polygon points="53.4 69.25 55.67 67.94 55.67 160.52 53.4 159.25 53.4 69.25" style="fill:#fafafa"></polygon><polygon points="32.43 178.8 30.17 177.48 30.17 75.18 32.43 76.49 32.43 178.8" style="fill:#e0e0e0"></polygon><polygon points="30.17 75.18 32.43 76.49 134.18 17.74 131.93 16.43 30.17 75.18" style="fill:#fafafa"></polygon><polygon points="36.64 121.32 36.64 123.93 129.98 70.04 127.72 68.73 36.64 121.32" style="fill:#e0e0e0"></polygon></g><polygon points="36.65 128.79 36.64 123.93 129.98 70.04 129.97 74.91 36.65 128.79" style="fill:#f0f0f0"></polygon><polygon points="55.67 165.38 59.87 162.95 59.87 60.65 55.67 63.07 55.67 165.38" style="fill:#f0f0f0"></polygon><polygon points="106.81 135.85 111.02 133.42 111.02 31.12 106.81 33.55 106.81 135.85" style="fill:#f0f0f0"></polygon><polygon points="55.67 112.95 53.4 111.64 53.4 69.25 55.67 67.94 55.67 112.95" style="fill:#fafafa"></polygon><polygon points="106.8 83.43 104.53 82.12 104.53 39.72 106.8 38.41 106.8 83.43" style="fill:#fafafa"></polygon></g></g></g><g id="freepik--Pictures--inject-2"><g id="freepik--Picture--inject-2"><g id="freepik--frame--inject-2"><polygon points="454.41 115.87 452.81 116.83 419.95 97.85 421.55 96.9 454.41 115.87" style="fill:#fafafa"></polygon><polygon points="421.55 96.9 452.81 114.94 452.81 82.21 421.55 64.17 421.55 96.9" style="fill:#fff"></polygon><path d="M416.92,99.6l38.91,22.46V80.46L416.92,58Zm3-36.37,32.86,19v34.62L420,97.85Z" style="fill:#f0f0f0"></path><polygon points="419.95 97.85 421.55 96.9 421.55 64.17 419.95 63.23 419.95 97.85" style="fill:#e0e0e0"></polygon><polygon points="416.92 58 418.55 57.07 457.46 79.53 455.83 80.46 416.92 58" style="fill:#fafafa"></polygon><polygon points="457.46 79.53 455.83 80.46 455.83 122.06 457.46 121.13 457.46 79.53" style="fill:#e0e0e0"></polygon></g><g id="freepik--Land--inject-2"><polygon points="422.77 95.92 451.59 112.56 451.59 104.24 444.38 87.6 439.89 91.76 441.51 98.73 431.56 77.45 422.77 87.6 422.77 95.92" style="fill:#f0f0f0"></polygon><path d="M440.17,79.57a4.73,4.73,0,0,1,2.13,3.69c0,1.36-1,1.91-2.13,1.23A4.71,4.71,0,0,1,438,80.8C438,79.44,439,78.89,440.17,79.57Z" style="fill:#f0f0f0"></path></g></g><g id="freepik--picture--inject-2"><g id="freepik--frame--inject-2"><polygon points="404.8 87.22 403.19 88.18 370.33 69.2 371.93 68.25 404.8 87.22" style="fill:#fafafa"></polygon><polygon points="371.93 68.25 403.19 86.29 403.19 53.56 371.93 35.52 371.93 68.25" style="fill:#fff"></polygon><path d="M367.31,71l38.91,22.46V51.81L367.31,29.35Zm3-36.37,32.86,19V88.18l-32.86-19Z" style="fill:#f0f0f0"></path><polygon points="370.33 69.2 371.93 68.25 371.93 35.52 370.33 34.58 370.33 69.2" style="fill:#e0e0e0"></polygon><polygon points="367.31 29.35 368.93 28.42 407.84 50.88 406.22 51.81 367.31 29.35" style="fill:#fafafa"></polygon><polygon points="407.84 50.88 406.22 51.81 406.22 93.41 407.84 92.48 407.84 50.88" style="fill:#e0e0e0"></polygon></g><g id="freepik--land--inject-2"><polygon points="373.15 67.27 401.97 83.91 401.97 75.59 394.77 58.95 390.28 63.11 391.89 70.08 381.94 48.8 373.15 58.95 373.15 67.27" style="fill:#f0f0f0"></polygon><path d="M390.55,50.92a4.7,4.7,0,0,1,2.13,3.69c0,1.36-.95,1.91-2.13,1.23a4.7,4.7,0,0,1-2.13-3.69C388.42,50.79,389.37,50.24,390.55,50.92Z" style="fill:#f0f0f0"></path></g></g></g><g id="freepik--Plant--inject-2"><g id="freepik--plant--inject-2"><g id="freepik--Pot--inject-2"><g id="freepik--pot--inject-2"><path d="M251.79,222.74c9.46-9.76,15-37.09,5.79-44.84H210.63c-9.22,7.74-3.67,35.06,5.78,44.83l.26.27.33.32c.26.26.55.52.85.77l.23.18c.23.18.46.36.71.54a14,14,0,0,0,1.22.79c7.79,4.55,20.4,4.55,28.18,0h0a11.63,11.63,0,0,0,1.23-.79c.24-.17.45-.34.67-.51l.28-.22c.29-.25.56-.49.82-.75l.38-.37Z" style="fill:#e0e0e0"></path><path d="M214.71,174.79c-10.71,6.25-10.71,16.39,0,22.64s28.08,6.26,38.79,0,10.71-16.39,0-22.64S225.42,168.53,214.71,174.79Z" style="fill:#f0f0f0"></path><path d="M219.86,177.79c-7.87,4.6-7.87,12,0,16.63s20.62,4.6,28.49,0,7.86-12,0-16.64S227.73,173.2,219.86,177.79Z" style="fill:#e0e0e0"></path><path d="M248.35,185.69c-7.87-4.6-20.62-4.6-28.49,0a13,13,0,0,0-4.71,4.37,13.11,13.11,0,0,0,4.71,4.36c7.87,4.6,20.62,4.6,28.49,0a13.11,13.11,0,0,0,4.71-4.36A13,13,0,0,0,248.35,185.69Z" style="fill:#f5f5f5"></path></g><g id="freepik--Plants--inject-2"><path d="M220.61,122.35l12.63,13-12.81-8.08a38,38,0,0,0,.67,13.23,83.54,83.54,0,0,1,9.63,8.92l-9.91-5.51s-1.62,6.8-.14,17.69c.39,2.85,2.79,8.51,4.23,12.69a44.86,44.86,0,0,0,2.35,5.64c.05.12.11.23.16.35q3.86-1.58,8-3c2.14-3.31,5.48-11.75,7.21-18.79,6.61-27-12-45.37-28-52.82A50,50,0,0,1,220.61,122.35Z" style="fill:#ebebeb"></path><path d="M232.25,125.05c2.5,3.27,3.68,7.3,4.47,11.28a55.71,55.71,0,0,1,.95,12.16,51.75,51.75,0,0,1-6.11,23.37h0a.4.4,0,0,0,.7.38h0a52.46,52.46,0,0,0,5.81-23.75,56.22,56.22,0,0,0-1.15-12.21C236.06,132.31,234.8,128.28,232.25,125.05Z" style="fill:#fff"></path><path d="M284.83,132.19l0,0c-.38.45-6.55,7.85-15.71,22.24L253.77,157l11.32,1.94-6,9.63L244,171.72l11.79,1.87s-3.23,11.51-11.65,16.34c-4.64,2.66-6.66,2.73-8.32,1.75-2-1.2-3-4.5-3.83-9.42s.84-14.87,5.46-24.54a30.1,30.1,0,0,1,4.8-7.12C253.34,138.13,274.41,132.07,284.83,132.19Z" style="fill:#f0f0f0"></path><path d="M268.81,137.26a62.42,62.42,0,0,0-21.28,14.8,42.08,42.08,0,0,0-7.26,10.87A39.64,39.64,0,0,0,237,175.54a.05.05,0,0,0,0,.05,0,0,0,0,0,0,0,51,51,0,0,1,4-12.26,47.37,47.37,0,0,1,7-10.78,63.65,63.65,0,0,1,20.81-15.17,0,0,0,0,0,0-.08Z" style="fill:#fff"></path><path d="M180.4,138.77h0a37,37,0,0,1,4.26-.19,68.17,68.17,0,0,1,16.55,2.47c2,.55,4,1.19,6,1.93,1,.37,2,.76,3,1.18a47.35,47.35,0,0,1,13.26,8.25,29.88,29.88,0,0,1,4.82,5.62c.17.27.36.52.53.8h0c.43.71.82,1.41,1.19,2.1a40.68,40.68,0,0,1,5.47,19.59c.26,4.85-.88,10.52-1.74,11.51a2.17,2.17,0,0,1-.39.35c-1.3,1-3.53.69-7.83-1.23-8.62-3.84-12.9-15.16-12.9-15.16l11.23-3-14.9-1.59-6.79-8.73,10.76-3-15.08-.94a220.55,220.55,0,0,0-17.38-20l0,0Z" style="fill:#f0f0f0"></path><path d="M184.66,138.58a68.17,68.17,0,0,1,16.55,2.47c2,.55,4,1.19,6,1.93,1,.37,2,.76,3,1.18a47.35,47.35,0,0,1,13.26,8.25,29.88,29.88,0,0,1,4.82,5.62c.17.27.36.52.53.8h0c.43.71.82,1.41,1.19,2.1a40.68,40.68,0,0,1,5.47,19.59c.26,4.85-.88,10.52-1.74,11.51a2.17,2.17,0,0,1-.39.35,2.58,2.58,0,0,1-.87.41c.33-7.58-5.08-26.22-11.36-33.53-6.54-7.59-21.37-18.12-40.66-20.47v0A36.35,36.35,0,0,1,184.66,138.58Z" style="fill:#e6e6e6"></path><path d="M232.49,192.79a64.35,64.35,0,0,0-2.57-16.46,54,54,0,0,0-6.92-15.2,46.85,46.85,0,0,0-12.25-11.41,62.66,62.66,0,0,0-15-7.25,0,0,0,0,0-.06,0,0,0,0,0,0,0,.06,81.65,81.65,0,0,1,14.55,7.94,60.53,60.53,0,0,1,6.53,5.06,36.72,36.72,0,0,1,5.63,6,53.5,53.5,0,0,1,7.08,14.91,64.19,64.19,0,0,1,2.93,16.32,0,0,0,0,0,0,.05S232.5,192.82,232.49,192.79Z" style="fill:#fff"></path></g></g></g></g><g id="freepik--Furniture--inject-2"><g id="freepik--Bookshelf--inject-2"><g id="freepik--bookshelf--inject-2"><path d="M305.13,133.92,348,109.22a2.32,2.32,0,0,1,2.33-.24l3.09,1.79a2.3,2.3,0,0,1,1,2.13v84.92a7.28,7.28,0,0,1-3.3,5.7l-42.85,24.71a2.29,2.29,0,0,1-2.33.23c-.56-.32-2.55-1.46-3.1-1.79a2.3,2.3,0,0,1-1-2.13V139.63A7.28,7.28,0,0,1,305.13,133.92Z" style="fill:#263238"></path><path d="M345.11,199.84l3.09,1.78v9.75a1.81,1.81,0,0,1-.83,1.43l-1.44.83a1.78,1.78,0,0,1-1.65,0l-1.44-.83a3,3,0,0,1-1.13-1.37l-2.78-8Z" style="fill:#263238"></path><path d="M348.2,211.37a1.81,1.81,0,0,1-.83,1.43l-1.44.83a.74.74,0,0,1-1.13-.42l-2.78-8,6.18-3.57Z" style="fill:#37474f"></path><path d="M314.2,217.64l3.09,1.78v9.76a1.82,1.82,0,0,1-.82,1.42l-1.44.84a1.84,1.84,0,0,1-1.65,0l-1.44-.84a2.88,2.88,0,0,1-1.14-1.37l-2.78-8Z" style="fill:#263238"></path><path d="M317.29,229.18a1.82,1.82,0,0,1-.82,1.42l-1.44.84a.76.76,0,0,1-1.14-.42l-2.78-8,6.18-3.57Z" style="fill:#37474f"></path><path d="M350.86,111.06,308,135.77a7.28,7.28,0,0,0-3.3,5.7v84.91a2,2,0,0,0,3.3,1.91l42.85-24.71a7.29,7.29,0,0,0,3.3-5.71V113a2.29,2.29,0,0,0-1-2.14A2.33,2.33,0,0,0,350.86,111.06Z" style="fill:#37474f"></path><g id="freepik--Bottom--inject-2"><polygon points="460.32 266.31 413.96 293.07 301.84 228.34 304.93 226.56 351.29 199.79 460.32 262.74 460.32 266.31" style="fill:#455a64"></polygon><polygon points="415.42 170.53 361.72 201.53 361.72 255.78 415.41 224.78 415.42 170.53" style="fill:#37474f"></polygon><polygon points="413.96 293.07 413.96 289.51 301.84 224.77 301.84 228.34 413.96 293.07" style="fill:#263238"></polygon><polygon points="361.72 201.53 380.26 226.51 410.87 244.19 410.87 229.91 361.72 201.53" style="opacity:0.1"></polygon></g><g id="freepik--Books--inject-2"><path d="M365,255.27l25.78-14.86a2,2,0,0,1,1.76,0l16.3,9.34a.54.54,0,0,1,0,1l-23,13.26a2,2,0,0,1-1.76,0l-6.48-3.75a2,2,0,0,0-1.76,0l-1,.59a2,2,0,0,1-1.76,0L365,256.28A.53.53,0,0,1,365,255.27Z" style="opacity:0.1"></path><g id="freepik--Book--inject-2"><polygon points="389.76 204.63 369.48 216.48 369.38 255.35 389.66 243.5 389.76 204.63" style="fill:#3076E0"></polygon><path d="M370.13,217.13l19.63-11.4a8.19,8.19,0,0,0,4.47,2.46l-19.46,11.35A19.36,19.36,0,0,1,370.13,217.13Z" style="fill:#f5f5f5"></path><path d="M376.66,219.47a4.17,4.17,0,0,1-3.77,0l-3.29-1.91a1.15,1.15,0,0,1,0-2.18l19.34-11.23.82.47-19,11.12a.69.69,0,0,0,0,1.31l3.07,1.74a2.5,2.5,0,0,0,2.26,0l19-11.1.93.53Z" style="fill:#3076E0"></path><path d="M376.66,219.47a4.17,4.17,0,0,1-3.77,0l-3.29-1.91a1.15,1.15,0,0,1,0-2.18l19.34-11.23.82.47-19,11.12a.69.69,0,0,0,0,1.31l3.07,1.74a2.5,2.5,0,0,0,2.26,0l19-11.1.93.53Z" style="fill:#fff;opacity:0.6000000000000001"></path><path d="M396,208.23l-.11,38.87-19.34,11.23a4.12,4.12,0,0,1-3.76,0l-3.3-1.9a1.33,1.33,0,0,1-.77-1.09l.1-38.87a1.33,1.33,0,0,0,.77,1.09l3.3,1.91a4.17,4.17,0,0,0,3.77,0Z" style="fill:#3076E0"></path><path d="M396,208.23l-.11,38.87-19.34,11.23a4.12,4.12,0,0,1-3.76,0l-3.3-1.9a1.33,1.33,0,0,1-.77-1.09l.1-38.87a1.33,1.33,0,0,0,.77,1.09l3.3,1.91a4.17,4.17,0,0,0,3.77,0Z" style="fill:#fff;opacity:0.4"></path><path d="M374.77,219.92a3.73,3.73,0,0,1-1.88-.44l-3.3-1.91a1.33,1.33,0,0,1-.77-1.09l-.1,38.87a1.33,1.33,0,0,0,.77,1.09l3.3,1.9a3.84,3.84,0,0,0,1.88.45Z" style="fill:#3076E0"></path><path d="M374.77,219.92a3.73,3.73,0,0,1-1.88-.44l-3.3-1.91a1.33,1.33,0,0,1-.77-1.09l-.1,38.87a1.33,1.33,0,0,0,.77,1.09l3.3,1.9a3.84,3.84,0,0,0,1.88.45Z" style="fill:#fff;opacity:0.7000000000000001"></path></g><g id="freepik--book--inject-2"><polygon points="397.27 211.28 378.47 222.27 378.37 258.31 397.17 247.32 397.27 211.28" style="fill:#3076E0"></polygon><polygon points="397.27 211.28 378.47 222.27 378.37 258.31 397.17 247.32 397.27 211.28" style="opacity:0.35000000000000003"></polygon><path d="M379.07,222.87l18.19-10.57a7.57,7.57,0,0,0,4.15,2.28l-18,10.52A18,18,0,0,1,379.07,222.87Z" style="fill:#fff"></path><path d="M385.12,225a3.8,3.8,0,0,1-3.49,0l-3.06-1.76a1.07,1.07,0,0,1,0-2l17.93-10.42.76.44-17.64,10.31a.64.64,0,0,0,0,1.21l2.84,1.62a2.3,2.3,0,0,0,2.09,0l17.63-10.29.86.5Z" style="fill:#3076E0"></path><path d="M385.12,225a3.8,3.8,0,0,1-3.49,0l-3.06-1.76a1.07,1.07,0,0,1,0-2l17.93-10.42.76.44-17.64,10.31a.64.64,0,0,0,0,1.21l2.84,1.62a2.3,2.3,0,0,0,2.09,0l17.63-10.29.86.5Z" style="opacity:0.2"></path><path d="M403.05,214.62l-.1,36L385,261.07a3.87,3.87,0,0,1-3.49,0l-3-1.77a1.21,1.21,0,0,1-.72-1l.09-36a1.23,1.23,0,0,0,.72,1l3.06,1.77a3.87,3.87,0,0,0,3.49,0Z" style="fill:#3076E0"></path><path d="M403.05,214.62l-.1,36L385,261.07a3.87,3.87,0,0,1-3.49,0l-3-1.77a1.21,1.21,0,0,1-.72-1l.09-36a1.23,1.23,0,0,0,.72,1l3.06,1.77a3.87,3.87,0,0,0,3.49,0Z" style="opacity:0.30000000000000004"></path><path d="M383.37,225.46a3.64,3.64,0,0,1-1.74-.41l-3.06-1.77a1.23,1.23,0,0,1-.72-1l-.09,36a1.21,1.21,0,0,0,.72,1l3,1.77a3.56,3.56,0,0,0,1.75.41Z" style="fill:#3076E0"></path><path d="M383.37,225.46a3.64,3.64,0,0,1-1.74-.41l-3.06-1.77a1.23,1.23,0,0,1-.72-1l-.09,36a1.21,1.21,0,0,0,.72,1l3,1.77a3.56,3.56,0,0,0,1.75.41Z" style="opacity:0.1"></path></g></g><g id="freepik--books--inject-2"><path d="M383.49,268.92l31.74-18.52a2,2,0,0,1,1.81,0l16.75,9.6a.55.55,0,0,1,0,1.05l-23.64,13.63a2,2,0,0,1-1.8,0l-6.67-3.85a2,2,0,0,0-1.8,0l-6.29,3.85a2,2,0,0,1-1.8,0l-8.3-4.72A.55.55,0,0,1,383.49,268.92Z" style="opacity:0.1"></path><g id="freepik--book--inject-2"><polygon points="402.05 219.69 381.22 231.87 385.86 269.09 406.68 256.92 402.05 219.69"></polygon><path d="M382,232.46l20.17-11.72a10.36,10.36,0,0,0,5.22,2.18l-20,11.66A25.14,25.14,0,0,1,382,232.46Z" style="fill:#f5f5f5"></path><path d="M389.46,234.43a5.15,5.15,0,0,1-4.13.17l-3.85-1.69c-1.22-.53-1.33-1.47-.26-2.09l19.87-11.54,1,.41-19.54,11.42c-.64.38-.57.94.15,1.26l3.58,1.54a3.05,3.05,0,0,0,2.48-.1l19.54-11.4,1.08.48Z" style="fill:#263238"></path><path d="M409.34,222.89,414,260.11,394.1,271.65a5.13,5.13,0,0,1-4.14.17l-3.85-1.69c-.6-.27-.94-.63-1-1l-4.64-37.22c.05.38.38.74,1,1l3.85,1.69a5.15,5.15,0,0,0,4.13-.16Z" style="fill:#37474f"></path><path d="M387.45,235a5,5,0,0,1-2.12-.35l-3.85-1.69c-.61-.27-.94-.63-1-1l4.64,37.22c0,.38.38.74,1,1l3.85,1.69a5.08,5.08,0,0,0,2.13.35Z" style="fill:#455a64"></path></g><g id="freepik--book--inject-2"><polygon points="418.75 222.19 399.44 233.47 403.74 267.99 423.05 256.7 418.75 222.19" style="fill:#3076E0"></polygon><polygon points="418.75 222.19 399.44 233.47 403.74 267.99 423.05 256.7 418.75 222.19" style="opacity:0.35000000000000003"></polygon><path d="M400.18,234l18.7-10.86a9.55,9.55,0,0,0,4.83,2L405.18,236A23,23,0,0,1,400.18,234Z" style="fill:#fff"></path><path d="M407.09,235.85a4.74,4.74,0,0,1-3.84.15l-3.57-1.56c-1.12-.49-1.23-1.36-.24-1.94l18.43-10.7.88.38-18.11,10.59c-.6.35-.53.87.14,1.16l3.32,1.44a2.87,2.87,0,0,0,2.3-.09l18.11-10.57,1,.44Z" style="fill:#3076E0"></path><path d="M407.09,235.85a4.74,4.74,0,0,1-3.84.15l-3.57-1.56c-1.12-.49-1.23-1.36-.24-1.94l18.43-10.7.88.38-18.11,10.59c-.6.35-.53.87.14,1.16l3.32,1.44a2.87,2.87,0,0,0,2.3-.09l18.11-10.57,1,.44Z" style="opacity:0.2"></path><path d="M425.51,225.15l4.3,34.51-18.43,10.7a4.72,4.72,0,0,1-3.83.15L404,269c-.56-.25-.87-.59-.91-.94l-4.3-34.51c0,.35.35.69.91.94l3.57,1.57a4.78,4.78,0,0,0,3.84-.16Z" style="fill:#3076E0"></path><path d="M425.51,225.15l4.3,34.51-18.43,10.7a4.72,4.72,0,0,1-3.83.15L404,269c-.56-.25-.87-.59-.91-.94l-4.3-34.51c0,.35.35.69.91.94l3.57,1.57a4.78,4.78,0,0,0,3.84-.16Z" style="fill:#fff;opacity:0.30000000000000004"></path><path d="M405.22,236.33a4.7,4.7,0,0,1-2-.32l-3.57-1.57c-.56-.25-.87-.59-.91-.94l4.3,34.51c0,.35.35.69.91.94l3.57,1.56a4.64,4.64,0,0,0,2,.33Z" style="fill:#3076E0"></path><path d="M405.22,236.33a4.7,4.7,0,0,1-2-.32l-3.57-1.57c-.56-.25-.87-.59-.91-.94l4.3,34.51c0,.35.35.69.91.94l3.57,1.56a4.64,4.64,0,0,0,2,.33Z" style="opacity:0.1"></path></g></g><polygon points="308.02 166.97 308.02 170.53 413.97 231.7 460.32 204.93 460.32 201.37 354.38 140.2 308.02 166.97" style="fill:#263238"></polygon><polygon points="308.02 166.97 413.96 228.13 460.32 201.37 354.38 140.2 308.02 166.97" style="fill:#455a64"></polygon><g id="freepik--Side--inject-2"><path d="M414.16,196.83,457,172.12a2.34,2.34,0,0,1,2.33-.23c.55.32,2.53,1.47,3.09,1.78a2.33,2.33,0,0,1,1,2.14v84.91a7.28,7.28,0,0,1-3.29,5.71l-42.86,24.71a2.34,2.34,0,0,1-2.33.23l-3.1-1.79a2.33,2.33,0,0,1-1-2.13V202.54A7.28,7.28,0,0,1,414.16,196.83Z" style="fill:#263238"></path><polygon points="413.97 214.83 410.87 213.04 410.87 202.33 413.98 204.12 413.97 214.83" style="opacity:0.2"></polygon><polygon points="304.71 151.8 301.83 150.1 301.83 139.39 304.72 141.09 304.71 151.8" style="opacity:0.2"></polygon><path d="M454.14,262.74l3.09,1.79v9.75a1.82,1.82,0,0,1-.82,1.43l-1.45.83a1.82,1.82,0,0,1-1.64,0l-1.45-.83a3,3,0,0,1-1.13-1.38l-2.78-8Z" style="fill:#263238"></path><path d="M457.23,274.28a1.82,1.82,0,0,1-.82,1.43l-1.45.83a.75.75,0,0,1-1.13-.42l-2.78-8,6.18-3.57Z" style="fill:#37474f"></path><path d="M423.24,280.55l3.09,1.78v9.76a1.81,1.81,0,0,1-.83,1.42l-1.44.84a1.84,1.84,0,0,1-1.65,0l-1.44-.84a3,3,0,0,1-1.14-1.37l-2.78-8Z" style="fill:#263238"></path><path d="M426.33,292.09a1.81,1.81,0,0,1-.83,1.42l-1.44.84a.76.76,0,0,1-1.14-.43l-2.78-8,6.19-3.57Z" style="fill:#37474f"></path><path d="M460.12,173.91l-42.86,24.71a7.27,7.27,0,0,0-3.29,5.7v84.92c0,1.05,0,3.84,0,3.84s2.39-1.42,3.3-1.94l42.86-24.71a7.28,7.28,0,0,0,3.29-5.71V175.81a2,2,0,0,0-3.29-1.9Z" style="fill:#37474f"></path><path d="M417.26,198.62l42.86-24.71a2,2,0,0,1,3.29,1.9v10.47L414,214.83V204.32A7.27,7.27,0,0,1,417.26,198.62Z" style="opacity:0.2"></path></g><g id="freepik--Top--inject-2"><path d="M294.51,134a2.3,2.3,0,0,1,1.36-1.9l45.95-26.53a7.27,7.27,0,0,1,6.58,0l117.9,68.06a2.29,2.29,0,0,1,1.35,1.91v3.56a2.29,2.29,0,0,1-1.35,1.91l-45.95,26.52a7.29,7.29,0,0,1-6.59,0L295.87,139.51a2.32,2.32,0,0,1-1.36-1.9C294.52,137,294.52,134.68,294.51,134Z" style="fill:#37474f"></path><path d="M420.35,204l45.95-26.53c1.82-1,1.82-2.76,0-3.81L348.4,105.61a7.27,7.27,0,0,0-6.58,0l-45.95,26.53c-1.82,1.05-1.82,2.75,0,3.8L413.76,204A7.29,7.29,0,0,0,420.35,204Z" style="fill:#455a64"></path></g><g id="freepik--shadows--inject-2"><polygon points="304.93 144.74 313.44 163.87 410.87 220.18 410.88 205.9 304.93 144.74" style="opacity:0.1"></polygon></g><polygon points="308.02 170.53 361.72 201.53 361.72 255.78 308.02 224.78 308.02 170.53" style="fill:#3076E0"></polygon><polygon points="308.02 170.53 361.72 201.53 361.72 255.78 308.02 224.78 308.02 170.53" style="opacity:0.15"></polygon><polygon points="334.24 185.67 335.5 186.4 335.5 240.65 334.24 239.92 334.24 185.67" style="opacity:0.30000000000000004"></polygon><path d="M339.76,212.09v7.75l.68.4a.76.76,0,0,0,1.14-.67V214a1.46,1.46,0,0,0-.73-1.26Z" style="fill:#263238"></path><path d="M330,206.45v7.76l-.67-.39a3.11,3.11,0,0,1-1.15-2v-5.59c0-.52.28-.68.73-.42Z" style="fill:#263238"></path></g><g id="freepik--picture--inject-2"><polygon id="freepik--shadow--inject-2" points="427.62 183.7 447.19 172.4 414.57 153.57 395 164.87 427.62 183.7" style="fill:#37474f"></polygon><g id="freepik--frame--inject-2"><polygon points="426.99 176.72 425.65 177.37 400.75 163 402.1 162.35 426.99 176.72" style="fill:#3076E0"></polygon><polygon points="426.99 176.72 425.65 177.37 400.75 163 402.1 162.35 426.99 176.72" style="opacity:0.2"></polygon><polygon points="402.1 162.35 425.78 176.02 429.22 140.6 405.54 126.94 402.1 162.35" style="fill:#3076E0"></polygon><g style="opacity:0.8"><polygon points="402.1 162.35 425.78 176.02 429.22 140.6 405.54 126.94 402.1 162.35" style="fill:#fff"></polygon></g><path d="M398.22,164.18l29.47,17,4.06-41.77-29.47-17Zm6.11-37.95,24.89,14.37-3.57,36.77L400.75,163Z" style="fill:#3076E0"></path><path d="M398.22,164.18l29.47,17,4.06-41.77-29.47-17Zm6.11-37.95,24.89,14.37-3.57,36.77L400.75,163Z" style="fill:#3076E0"></path><polygon points="400.75 163 402.1 162.35 405.54 126.94 404.33 126.23 400.75 163" style="fill:#3076E0"></polygon><polygon points="400.75 163 402.1 162.35 405.54 126.94 404.33 126.23 400.75 163" style="opacity:0.35000000000000003"></polygon><polygon points="402.28 122.4 403.65 121.77 433.12 138.79 431.75 139.42 402.28 122.4" style="fill:#3076E0"></polygon><polygon points="402.28 122.4 403.65 121.77 433.12 138.79 431.75 139.42 402.28 122.4" style="fill:#fff;opacity:0.6000000000000001"></polygon><polygon points="433.12 138.79 431.75 139.42 427.69 181.19 429.05 180.56 433.12 138.79" style="fill:#3076E0"></polygon><polygon points="433.12 138.79 431.75 139.42 427.69 181.19 429.05 180.56 433.12 138.79" style="opacity:0.35000000000000003"></polygon></g><g id="freepik--land--inject-2"><polygon points="403.14 161.68 424.97 174.28 425.55 168.31 421.49 150.78 417.62 156.77 418.42 161.81 411.97 143.21 403.72 155.71 403.14 161.68" style="fill:#3076E0"></polygon><path d="M421.82,143.4a3.09,3.09,0,0,1,1.45,2.7c-.1,1-.9,1.35-1.79.84a3.08,3.08,0,0,1-1.44-2.7C420.13,143.26,420.93,142.89,421.82,143.4Z" style="fill:#3076E0"></path></g></g><g id="freepik--plant--inject-2"><path id="freepik--shadow--inject-2" d="M349.82,131.81c-6.57,3.8-6.57,9.95,0,13.74s17.23,3.79,23.8,0,6.57-9.94,0-13.74S356.39,128,349.82,131.81Z" style="fill:#37474f"></path><g id="freepik--pot--inject-2"><path d="M352.13,139.23c-5.31-5.41-8.43-18.93-3.25-23.23h26.33c5.18,4.3,2.06,17.81-3.24,23.23l-.14.15-.19.17c-.15.15-.31.29-.48.43l-.12.1-.4.3c-.23.16-.46.31-.69.44a17.48,17.48,0,0,1-15.81,0h0c-.23-.13-.46-.28-.69-.44l-.37-.28-.16-.13a6.1,6.1,0,0,1-.46-.41l-.21-.2Z" style="fill:#ebebeb"></path><path d="M372.93,114.27c6,3.47,6,9.1,0,12.57s-15.75,3.47-21.76,0-6-9.1,0-12.57S366.92,110.8,372.93,114.27Z" style="fill:#fafafa"></path><path d="M371,115.38c4.95,2.86,4.95,7.49,0,10.35s-13,2.86-17.93,0-4.95-7.49,0-10.35S366.06,112.52,371,115.38Z" style="fill:#ebebeb"></path><path d="M353.08,120.29c4.95-2.86,13-2.86,17.93,0a8.31,8.31,0,0,1,3,2.72,8.22,8.22,0,0,1-3,2.72c-4.95,2.86-13,2.86-17.93,0a8.22,8.22,0,0,1-3-2.72A8.31,8.31,0,0,1,353.08,120.29Z" style="fill:#455a64"></path></g><g id="freepik--Cactus--inject-2"><path d="M349.37,109.07A12.69,12.69,0,0,1,365,96.73a12.36,12.36,0,0,1,9.45,9.75,12.69,12.69,0,0,1-6.14,13.61,3.91,3.91,0,0,0-2,3.38v.15c0,2.83-8.47,2.83-8.47,0v-.16a3.86,3.86,0,0,0-2-3.35A12.69,12.69,0,0,1,349.37,109.07Z" style="fill:#3076E0"></path><g style="opacity:0.30000000000000004"><path d="M349.37,109.07A12.69,12.69,0,0,1,365,96.73a12.36,12.36,0,0,1,9.45,9.75,12.69,12.69,0,0,1-6.14,13.61,3.91,3.91,0,0,0-2,3.38v.15c0,2.83-8.47,2.83-8.47,0v-.16a3.86,3.86,0,0,0-2-3.35A12.69,12.69,0,0,1,349.37,109.07Z" style="fill:#fff"></path></g><path d="M362.05,96.61a1.87,1.87,0,0,1,0-.21,12.75,12.75,0,0,1,3,.33,12.36,12.36,0,0,1,9.45,9.75,12.69,12.69,0,0,1-6.14,13.61,3.91,3.91,0,0,0-2,3.38v.15a1.43,1.43,0,0,1-.5,1.06h0c0-2.52.23-3.85,2.75-6.58a13.32,13.32,0,0,0,3.41-9.21C371.9,103.78,368.19,96.62,362.05,96.61Z" style="fill:#fff;opacity:0.25"></path><path d="M362.05,96.61Zm-9.86,12.29a13.32,13.32,0,0,0,3.41,9.21c2.52,2.73,2.75,4.06,2.75,6.58.18.78.68,1,1.46.76,0-4.34-.09-6.82-1.24-9.36-1.5-3.32-4.3-14,3.48-19.48C355.9,96.62,352.19,103.78,352.19,108.9Z" style="fill:#fff;opacity:0.25"></path><path d="M365.52,116.09c-1.15,2.54-1.24,5-1.24,9.36l-2.23.29V96.39C369.82,101.82,367,112.77,365.52,116.09Z" style="fill:#fff;opacity:0.25"></path><path d="M361.84,110.37V112a.2.2,0,0,0,.21.2.2.2,0,0,0,.2-.2v-1.62a.21.21,0,1,0-.41,0Zm0-4.85v1.62a.21.21,0,1,0,.41,0v-1.62a.2.2,0,0,0-.2-.2A.2.2,0,0,0,361.84,105.52Zm0,9.7v1.61a.21.21,0,0,0,.21.21.2.2,0,0,0,.2-.21v-1.61a.2.2,0,0,0-.2-.21A.21.21,0,0,0,361.84,115.22Zm0,4.85v1.61a.21.21,0,0,0,.21.21.2.2,0,0,0,.2-.21v-1.61a.2.2,0,0,0-.2-.21A.21.21,0,0,0,361.84,120.07Zm0,4.84v.83a.21.21,0,0,0,.21.21.2.2,0,0,0,.2-.21v-.83a.2.2,0,0,0-.2-.2A.2.2,0,0,0,361.84,124.91Zm0-24.23v1.61a.21.21,0,0,0,.21.21.2.2,0,0,0,.2-.21v-1.61a.2.2,0,0,0-.2-.21A.21.21,0,0,0,361.84,100.68Zm-.76-3.6a.22.22,0,0,0,0,.3.2.2,0,0,0,.16.07.18.18,0,0,0,.13,0c.15-.13.32-.25.49-.37v.41a.21.21,0,0,0,.21.21.2.2,0,0,0,.2-.21V97c.17.12.34.24.49.37a.19.19,0,0,0,.14,0,.21.21,0,0,0,.16-.07.22.22,0,0,0,0-.3c-.27-.22-.55-.43-.84-.64h-.05l-.06,0h0l-.06,0h0C361.64,96.65,361.35,96.86,361.08,97.08Zm-1.49,26.72c0,.52,0,1.07,0,1.65a.21.21,0,0,0,.21.21.21.21,0,0,0,.21-.21c0-.58,0-1.13,0-1.66a.2.2,0,0,0-.21-.2h0A.21.21,0,0,0,359.59,123.8Zm-2.9-14.54c.05.55.11,1.11.2,1.66a.22.22,0,0,0,.21.18h0a.2.2,0,0,0,.17-.23c-.08-.54-.15-1.09-.2-1.64a.2.2,0,0,0-.22-.19A.21.21,0,0,0,356.69,109.26Zm2.54,9.61a14.63,14.63,0,0,1,.22,1.63.22.22,0,0,0,.21.19h0a.21.21,0,0,0,.19-.22c-.06-.61-.13-1.15-.23-1.66a.2.2,0,0,0-.25-.17A.21.21,0,0,0,359.23,118.87Zm-2.13-12.93c.06-.55.13-1.1.24-1.62a.2.2,0,0,0-.17-.24.2.2,0,0,0-.24.16,15.08,15.08,0,0,0-.24,1.66.21.21,0,0,0,.19.23h0A.2.2,0,0,0,357.1,105.94Zm.55,8.24a15.39,15.39,0,0,0,.56,1.59.21.21,0,0,0,.19.13l.08,0a.2.2,0,0,0,.11-.27c-.19-.46-.37-1-.55-1.55a.2.2,0,0,0-.26-.13A.19.19,0,0,0,357.65,114.18Zm.71-13a12.26,12.26,0,0,1,.81-1.41.21.21,0,0,0-.35-.23A12.31,12.31,0,0,0,358,101a.21.21,0,0,0,.1.28.15.15,0,0,0,.09,0A.21.21,0,0,0,358.36,101.22Zm-5.71,5.25a14.9,14.9,0,0,1,.42-1.59.21.21,0,0,0-.14-.26.22.22,0,0,0-.26.13,16.26,16.26,0,0,0-.42,1.63.2.2,0,0,0,.16.25h0A.2.2,0,0,0,352.65,106.47Zm.57,7.9a.23.23,0,0,0-.11.28,14.14,14.14,0,0,0,.77,1.5.22.22,0,0,0,.18.1.19.19,0,0,0,.1,0,.21.21,0,0,0,.08-.28,11.76,11.76,0,0,1-.74-1.46A.23.23,0,0,0,353.22,114.37ZM352,109.74c0,.57.09,1.13.17,1.67a.21.21,0,0,0,.21.18h0a.2.2,0,0,0,.17-.24c-.08-.53-.14-1.08-.17-1.63a.2.2,0,0,0-.22-.2A.21.21,0,0,0,352,109.74Zm2.2-7.75a.22.22,0,0,0,.18-.1,11.93,11.93,0,0,1,.91-1.36.21.21,0,0,0-.33-.25,12.66,12.66,0,0,0-.94,1.4.2.2,0,0,0,.08.28A.17.17,0,0,0,354.21,102Zm3.86,21.06a15.32,15.32,0,0,1,.07,1.64.21.21,0,0,0,.21.21.22.22,0,0,0,.21-.21,16.18,16.18,0,0,0-.07-1.68.21.21,0,0,0-.23-.19A.22.22,0,0,0,358.07,123.05Zm-.74-24.84a.2.2,0,0,0,.17.09.28.28,0,0,0,.12,0,8.54,8.54,0,0,1,1.4-.8.21.21,0,0,0,.11-.27.22.22,0,0,0-.28-.11,9.41,9.41,0,0,0-1.47.84A.2.2,0,0,0,357.33,98.21ZM356,118.5a.2.2,0,0,0,0,.29,14.79,14.79,0,0,1,1,1.29.21.21,0,0,0,.17.09.24.24,0,0,0,.12,0,.21.21,0,0,0,.06-.29,16.47,16.47,0,0,0-1-1.33A.21.21,0,0,0,356,118.5Zm11.24-7.58c.09-.55.16-1.11.2-1.66a.21.21,0,0,0-.19-.23.2.2,0,0,0-.22.19c-.05.55-.11,1.1-.2,1.64a.2.2,0,0,0,.17.23h0A.2.2,0,0,0,367.2,110.92Zm-1.15,3.14c-.17.56-.36,1.09-.55,1.55a.21.21,0,0,0,.11.27l.08,0a.22.22,0,0,0,.2-.13c.19-.48.38-1,.56-1.59a.21.21,0,0,0-.4-.12Zm.71-9.74c.1.52.18,1.07.23,1.62a.21.21,0,0,0,.2.19h0a.21.21,0,0,0,.19-.23,15.08,15.08,0,0,0-.24-1.66.19.19,0,0,0-.24-.16A.2.2,0,0,0,366.76,104.32Zm-2.68,19.47v1.66a.2.2,0,0,0,.2.21.21.21,0,0,0,.21-.21c0-.58,0-1.13,0-1.65a.21.21,0,0,0-.21-.21h0A.21.21,0,0,0,364.08,123.79Zm.35-3.1a.22.22,0,0,0,.21-.19c.05-.59.13-1.13.22-1.63a.2.2,0,1,0-.4-.07,14.79,14.79,0,0,0-.23,1.66.2.2,0,0,0,.18.22ZM365,99.52a.21.21,0,0,0-.05.29,10.88,10.88,0,0,1,.8,1.41.22.22,0,0,0,.19.12.15.15,0,0,0,.09,0,.2.2,0,0,0,.1-.28,12.31,12.31,0,0,0-.84-1.46A.21.21,0,0,0,365,99.52Zm.09-2.06a8.63,8.63,0,0,1,1.41.8.21.21,0,0,0,.12,0,.21.21,0,0,0,.11-.38,9,9,0,0,0-1.47-.84.22.22,0,0,0-.28.11A.21.21,0,0,0,365.07,97.46Zm4.79,18.48a.2.2,0,0,0,.07.28.19.19,0,0,0,.1,0,.21.21,0,0,0,.18-.1,12.49,12.49,0,0,0,.77-1.5.23.23,0,0,0-.11-.28.21.21,0,0,0-.27.11A15.37,15.37,0,0,1,369.86,115.94Zm1.81-6.22c0,.55-.09,1.1-.17,1.63a.21.21,0,0,0,.17.24h0a.21.21,0,0,0,.21-.18,15,15,0,0,0,.18-1.67.23.23,0,0,0-.2-.22h0A.22.22,0,0,0,371.67,109.72Zm-.64-4.84c.16.52.3,1.06.41,1.59a.2.2,0,0,0,.2.16h0a.21.21,0,0,0,.17-.25,16.34,16.34,0,0,0-.43-1.63.21.21,0,0,0-.26-.13A.2.2,0,0,0,371,104.88ZM365.61,123a16.18,16.18,0,0,0-.07,1.68.21.21,0,1,0,.41,0,15.32,15.32,0,0,1,.07-1.64.22.22,0,0,0-.18-.23A.2.2,0,0,0,365.61,123Zm3.22-22.77a.21.21,0,0,0,0,.29,13.35,13.35,0,0,1,.9,1.36.22.22,0,0,0,.18.1.23.23,0,0,0,.11,0,.2.2,0,0,0,.07-.28,14.17,14.17,0,0,0-.93-1.4A.22.22,0,0,0,368.83,100.24Zm-2,19.61a.21.21,0,0,0,.05.29.27.27,0,0,0,.12,0,.2.2,0,0,0,.17-.09,13.3,13.3,0,0,1,1-1.29.21.21,0,0,0-.32-.27A14.25,14.25,0,0,0,366.81,119.85Z" style="fill:#fff;opacity:0.4"></path><path d="M369.21,92.36a.85.85,0,0,1,.87.19,1.52,1.52,0,0,1,.28.79,8.4,8.4,0,0,1-.17,2.24,4,4,0,0,1,3.66-1.27.47.47,0,0,1,.28.12.42.42,0,0,1,.12.28A4,4,0,0,1,373,98.37a8.31,8.31,0,0,1,2.24-.16,1.5,1.5,0,0,1,.79.27.85.85,0,0,1,.19.87,1.78,1.78,0,0,1-.5.77,5.76,5.76,0,0,1-4.28,1.69,5.29,5.29,0,0,1-3.24-1.43,5.35,5.35,0,0,1-1.43-3.24,5.76,5.76,0,0,1,1.69-4.28A1.78,1.78,0,0,1,369.21,92.36Z" style="fill:#455a64"></path></g></g></g></g><g id="freepik--Character--inject-2"><g id="freepik--character--inject-2"><g id="freepik--Sofa--inject-2"><path d="M229.91,258.14a1.76,1.76,0,0,0,.55-.09,1.74,1.74,0,0,0,1.11-2.21l-13.52-40.91a19.05,19.05,0,0,0-7.34-8.78l-56.13-32.41a5.63,5.63,0,0,0-5.21-.42,5.53,5.53,0,0,0-3,4.13l-6.9,19.87a1.75,1.75,0,1,0,3.3,1.15l6.95-20a2.86,2.86,0,0,0,.07-.28,1.8,1.8,0,0,1,3-1.42L209,209.18a15.53,15.53,0,0,1,5.77,6.9l13.51,40.86A1.77,1.77,0,0,0,229.91,258.14Z" style="fill:#263238"></path><path d="M146.94,307h.2a1.75,1.75,0,0,0,1.53-1.94l-5.61-46.84a13.63,13.63,0,0,0-6.1-9.42L80.82,216.36a6.44,6.44,0,0,0-9.31,3.1.69.69,0,0,0,0,.1L60.35,260a1.76,1.76,0,0,0,1.06,2.24,1.73,1.73,0,0,0,2.23-1l11.1-40.43a3,3,0,0,1,4.33-1.4l56.14,32.41a10.23,10.23,0,0,1,4.37,6.77l5.62,46.86A1.75,1.75,0,0,0,146.94,307Z" style="fill:#263238"></path><path d="M140.66,254.8,75.12,217a4.46,4.46,0,0,1,0-8.25l64.37-37.18a12,12,0,0,1,11,0l65.54,37.84a4.47,4.47,0,0,1,0,8.25L151.68,254.8a12,12,0,0,1-11,0Zm.45-80.45L76.75,211.54c-.7.41-1.13.91-1.13,1.31s.43.9,1.13,1.3L142.29,252a8.77,8.77,0,0,0,7.77,0l64.36-37.19c.7-.41,1.13-.91,1.13-1.31s-.43-.9-1.13-1.3l-65.54-37.84h0a8.75,8.75,0,0,0-7.77,0Zm8.58-1.41h0Z" style="fill:#455a64"></path><path d="M197.89,202.4a1.62,1.62,0,0,0,1.59-1.28l6.61-30.27a1.61,1.61,0,0,0-1.24-1.93,1.63,1.63,0,0,0-1.94,1.24l-6.61,30.26a1.63,1.63,0,0,0,1.24,1.94A2.21,2.21,0,0,0,197.89,202.4Z" style="fill:#37474f"></path><path d="M167,184.58a1.62,1.62,0,0,0,1.58-1.28L175.24,153a1.63,1.63,0,0,0-3.18-.7l-6.62,30.26a1.63,1.63,0,0,0,1.25,1.94A1.34,1.34,0,0,0,167,184.58Z" style="fill:#37474f"></path><path d="M146.94,144.46a1.65,1.65,0,0,1,1-1.36l8.52-4.92a5.19,5.19,0,0,1,4.7,0l61.42,35.46a1.63,1.63,0,0,1,1,1.35v2.55a1.63,1.63,0,0,1-1,1.35L214,183.82a5.25,5.25,0,0,1-4.7,0l-61.41-35.46a1.67,1.67,0,0,1-1-1.36Z" style="fill:#37474f"></path><path d="M147.92,143.1l8.52-4.92a5.19,5.19,0,0,1,4.7,0l50.54,29.18v17a4.86,4.86,0,0,1-2.35-.56l-61.41-35.46a1.67,1.67,0,0,1-1-1.36v-2.54A1.65,1.65,0,0,1,147.92,143.1Z" style="fill:#263238"></path><path d="M161.14,138.18l61.42,35.46a1.63,1.63,0,0,1,1,1.35,1.66,1.66,0,0,1-1,1.36L214,181.27a5.19,5.19,0,0,1-4.7,0l-61.41-35.46a1.43,1.43,0,0,1,0-2.71l8.52-4.92A5.19,5.19,0,0,1,161.14,138.18Z" style="fill:#455a64"></path><path d="M79.3,199.6l67-38.69a1.66,1.66,0,0,1,1.67.16l63.76,36.83A5.19,5.19,0,0,1,214,202v9.83a1.64,1.64,0,0,1-.69,1.52l-67,38.69a1.65,1.65,0,0,1-1.66-.16L81,215A5.19,5.19,0,0,1,78.62,211v-9.83A1.66,1.66,0,0,1,79.3,199.6Z" style="fill:#3076E0"></path><path d="M146.4,252l66.94-38.69a1.67,1.67,0,0,0,.7-1.52V202a4.91,4.91,0,0,0-.8-2.48l-66.94,38.7a5,5,0,0,1,.78,2.47v9.83A1.65,1.65,0,0,1,146.4,252Z" style="opacity:0.15"></path><path d="M147.08,250.49v-9.83a5.19,5.19,0,0,0-2.35-4.07L81,199.77a1.43,1.43,0,0,0-2.35,1.35V211A5.19,5.19,0,0,0,81,215l63.76,36.83a1.44,1.44,0,0,0,2.35-1.36Z" style="opacity:0.25"></path><path d="M75.09,146.11l58.14-33.59a1.49,1.49,0,0,1,1.46.21l8.53,4.92a6.53,6.53,0,0,1,2.81,4l7.89,45.55c.13.77,0,1.3-.41,1.53L95.37,202.35a1.48,1.48,0,0,1-1.47-.21l-8.53-4.92a6.61,6.61,0,0,1-2.81-4l-7.89-45.55C74.54,146.86,74.71,146.33,75.09,146.11Z" style="fill:#3076E0"></path><path d="M95.79,200.83c.13.78,0,1.3-.42,1.53l58.14-33.61c.38-.22.54-.75.41-1.52L146,121.68a6,6,0,0,0-1.05-2.33L86.85,152.94a6,6,0,0,1,1.05,2.33Z" style="opacity:0.15"></path><path d="M93.9,202.14l-8.53-4.92a6.61,6.61,0,0,1-2.81-4l-7.89-45.55c-.13-.78,0-1.31.42-1.53a1.54,1.54,0,0,1,1.47.21l8.52,4.93a6.59,6.59,0,0,1,2.82,4l7.88,45.55c.14.77,0,1.3-.41,1.52A1.48,1.48,0,0,1,93.9,202.14Z" style="opacity:0.25"></path></g><g id="freepik--bottom--inject-2"><path d="M168.85,244.67c-4.34-.48-8,3.07-8.3,4.19-.44,1.51-.21,4.54,1.64,8.24a26,26,0,0,1,2.19,11.73c-.24,3.43-1.67,12,1.88,16.22s11.31,7.77,13.9,1.83c.85-1.94-1.1-8.56-2-13.41-1.82-9.65-3.28-19.24-3.28-19.24Z" style="fill:#263238"></path><path d="M167.67,252.44a93.25,93.25,0,0,1,1.43,14.18c0,5.2,1.22,8.59,3.06,10.87,2,2.51,7,3.82,6.32-1.52-.5-3.71-3.61-21.74-3.61-21.74Z" style="fill:#ffa8a7"></path><path d="M162,247.12c-.13,3.2,1.8,11.66,6.29,18.67s10.82,14.95,12.12,19.9c.06-2.29-1-6.46-1.79-10.17l-.06-.24c0-.22-.09-.43-.13-.65l-.06-.29c-.06-.28-.11-.55-.16-.81v-.06c-.57-3-1.1-6-1.57-8.74-.37-2.17-.7-4.15-1-5.79-.14-.82-.25-1.56-.35-2.19-.05-.32-.1-.61-.14-.87-.17-1-.26-1.65-.26-1.65l-6-9.56c-.29,0-.57,0-.84,0A9.53,9.53,0,0,0,162,247.12Z" style="opacity:0.15"></path><path d="M186.12,187.78c-14.44-10.19-30.81-21.72-30.81-21.72L109.93,170l45.67,32.32,19.63,12.55s3.68-.39,1.58,5.43c-.67,1.84-1.66,5.53-2.7,9.7l9.61,24.43s5.44-8.38,11.2-24.49c5.83-16.31,6.08-21.65,5.35-24.84C199.32,200.94,197.92,196.11,186.12,187.78Z" style="fill:#3076E0"></path><path d="M186.12,187.78c-14.44-10.19-30.81-21.72-30.81-21.72L109.93,170l45.67,32.32,19.63,12.55s3.68-.39,1.58,5.43c-.67,1.84-1.66,5.53-2.7,9.7l9.61,24.43s5.44-8.38,11.2-24.49c5.83-16.31,6.08-21.65,5.35-24.84C199.32,200.94,197.92,196.11,186.12,187.78Z" style="fill:#fff;opacity:0.7000000000000001"></path><path d="M177.79,188.51a113.78,113.78,0,0,1,10.68,8.73,41.74,41.74,0,0,1,4.65,5,8.25,8.25,0,0,1,1.52,2.74,23.81,23.81,0,0,1,.51,3.32,29.24,29.24,0,0,1-.34,6.72c-.32,2.24-.81,4.48-1.34,6.71-1.1,4.48-2.11,9-3.11,13.49,1.56-4.34,3-8.75,4.25-13.18a60,60,0,0,0,1.61-6.8,27.36,27.36,0,0,0,.39-7.07,26,26,0,0,0-.59-3.51,9.17,9.17,0,0,0-1.85-3.24,38.24,38.24,0,0,0-5-4.95A75.52,75.52,0,0,0,177.79,188.51Z" style="fill:#3076E0;opacity:0.2"></path><path d="M150.86,192.9c.58.37,3.14,2.06,3.82,2.51,9.08,6.07,24.45,17.89,26.28,23.2,1.13,3.28,5.35,12.83,7.86,25.29,0,0-.5-8.29-1-16.41-.74-11.36-2.88-14.51-6.68-18.61-3.67-3.95-22.94-15-24.28-15.76,3.21-2.68,4.68-8.06,4.6-10.76C161.44,182.36,156.85,190.65,150.86,192.9Z" style="fill:#3076E0;opacity:0.30000000000000004"></path><path d="M178.61,278.83c-1.08-.14-1.29,1.83-2.14,4.3a13.64,13.64,0,0,0-.91,7.48c.65,3.21,5.3,4.11,7.29,8.43s4.74,12,12.86,15,14.93.81,16.87-1.65.89-5.17-4-9.12c-5.21-4.19-6.68-5.41-6.68-5.41Z" style="fill:#263238"></path><path d="M191.4,265.55a136.16,136.16,0,0,0,3.48,15.94c1.89,5.85,5.35,11.61,9.32,17.09.86,1.19,2.86,3.44,3.57,4.4a1.75,1.75,0,0,1-.41,2.66c-2.13,1.7-10.47,1.42-14.82-2.47s-7.94-11.69-10.47-14.73c-.95-1.15-1.84-2.31-2.67-3.54a5.76,5.76,0,0,1-1.1-3.83,16.66,16.66,0,0,0,.11-5.39,60.38,60.38,0,0,0-1.59-7.09Z" style="fill:#ffa8a7"></path><path d="M110.74,169.94c-4.57,15.31-3.27,23.43-.36,29.88,2.43,5.37,6.87,10.89,19.39,16.53,11.87,5.34,23,11,26,12.33s4,4.49,5.48,10.21c1.43,5.43,2.37,11.34,8.63,22.79,6.61,12.09,7.84,14.25,7.84,14.25s9.09,2.3,15.08-3.59c0,0-5.87-42.36-7.45-49.92-1.06-5.07-2.5-7.85-6.67-11.41-9.7-8.26-27.49-18.06-27.49-18.06s.9-15.52-2.35-24Z" style="fill:#3076E0"></path><path d="M110.74,169.94c-4.57,15.31-3.27,23.43-.36,29.88,2.43,5.37,6.87,10.89,19.39,16.53,11.87,5.34,23,11,26,12.33s4,4.49,5.48,10.21c1.43,5.43,2.37,11.34,8.63,22.79,6.61,12.09,7.84,14.25,7.84,14.25s9.09,2.3,15.08-3.59c0,0-5.87-42.36-7.45-49.92-1.06-5.07-2.5-7.85-6.67-11.41-9.7-8.26-27.49-18.06-27.49-18.06s.9-15.52-2.35-24Z" style="fill:#fff;opacity:0.7000000000000001"></path><path d="M188.5,267.33q-1.19-10.23-2.81-20.38c-1.09-6.78-2.24-13.53-3.77-20.25-.2-.84-.43-1.68-.65-2.52l-.41-1.27-.5-1.24a20.15,20.15,0,0,0-2.77-4.53,37.84,37.84,0,0,0-7.78-6.93c-2.82-2-5.78-3.76-8.72-5.52s-5.88-3.51-8.86-5.22c2.8,2,5.66,3.88,8.49,5.81s5.7,3.8,8.42,5.85a38.8,38.8,0,0,1,7.35,6.88,19.27,19.27,0,0,1,2.55,4.24l.45,1.15.37,1.18c.21.81.42,1.63.61,2.46.79,3.31,1.46,6.67,2.12,10l1.95,10.09Q186.46,257.25,188.5,267.33Z" style="fill:#3076E0;opacity:0.2"></path></g><g id="freepik--top--inject-2"><path d="M144.74,115.91c9.38,1.48,13,1.48,20.91,15.69,6.14,11.05,14.52,25.86,14.52,25.86l-17.31,8.6c-5.23-9.42-6.35-11.34-14.86-25.15Z" style="fill:#455a64"></path><path d="M157.63,150c5.35-8.4,3.1-14.45,1.27-18-3.68-7-14.16-16.07-14.16-16.07a61.82,61.82,0,0,0-15.36-1.69,54.59,54.59,0,0,0-14.14,2.11l-6.69,2.82c3.12,3.88,4.45,10.92,4.34,15.41-.29,11.74-5.15,14.61-5.15,14.61s1,10.23,1.26,12.92.06,5.46-.71,9.85a91.69,91.69,0,0,0-1.37,13.18c-.07,1.82,0,3.48,1,3.8,19.27,6.57,47.69-5.14,56.07-17.62-.57-3.24-4.66-8.58-5.38-12C157.75,155.19,157.2,156.14,157.63,150Z" style="fill:#37474f"></path><path d="M141.84,152.89s-4.12,5.13-13,3.65-10.59-8.16-10.59-8.16-.53,8.6,10.05,10.33C138.75,160.41,141.84,152.89,141.84,152.89Z" style="fill:#263238"></path><path d="M119.45,106.2a2.64,2.64,0,0,1,.83,1.52s2.45-1.53,2.67-1.65l8.17-4.29q5.73-3,11.44-6l4.52-2.41a10.06,10.06,0,0,1,1.68-.9c1.22-.36,2.59-.33,3.61-1.16a3.7,3.7,0,0,0,1.08-1.43c.05-.13.39-1.65.24-1.63a4.39,4.39,0,0,0,3.51-5.29,1.47,1.47,0,0,1-2.31.23,2.74,2.74,0,0,1-.44-2.59,26.52,26.52,0,0,1,1.08-2.52,6.78,6.78,0,0,0-.06-5.25c-1.18-2.57-4-4-6.71-4.75s-5.61-1.28-7.94-2.87c-1.69-1.15-3-2.49-4.93-3.2a15.11,15.11,0,0,0-5.77-.9,15.49,15.49,0,0,0-7.32,2.67c-2.09,1.31-4.06,3.1-4.74,5.48a1.36,1.36,0,0,1-.32.66,1.28,1.28,0,0,1-.6.22,10.26,10.26,0,0,0-8.24,9.79c-.05,2.08.62,4.08.46,6.17-.07.92-.29,1.83-.39,2.74a15.32,15.32,0,0,0,2.67,9.6,20.72,20.72,0,0,0,4.25,4.57A38.64,38.64,0,0,1,119.45,106.2Z" style="fill:#e0e0e0"></path><path d="M119.45,106.2a2.64,2.64,0,0,1,.83,1.52s2.45-1.53,2.67-1.65l8.17-4.29q5.73-3,11.44-6l4.52-2.41a10.06,10.06,0,0,1,1.68-.9c1.22-.36,2.59-.33,3.61-1.16a3.7,3.7,0,0,0,1.08-1.43c.05-.13.39-1.65.24-1.63a4.39,4.39,0,0,0,3.51-5.29,1.47,1.47,0,0,1-2.31.23,2.74,2.74,0,0,1-.44-2.59,26.52,26.52,0,0,1,1.08-2.52,6.78,6.78,0,0,0-.06-5.25c-1.18-2.57-4-4-6.71-4.75s-5.61-1.28-7.94-2.87c-1.69-1.15-3-2.49-4.93-3.2a15.11,15.11,0,0,0-5.77-.9,15.49,15.49,0,0,0-7.32,2.67c-2.09,1.31-4.06,3.1-4.74,5.48a1.36,1.36,0,0,1-.32.66,1.28,1.28,0,0,1-.6.22,10.26,10.26,0,0,0-8.24,9.79c-.05,2.08.62,4.08.46,6.17-.07.92-.29,1.83-.39,2.74a15.32,15.32,0,0,0,2.67,9.6,20.72,20.72,0,0,0,4.25,4.57A38.64,38.64,0,0,1,119.45,106.2Z" style="opacity:0.1"></path><path d="M147.28,76.3c1.88,1,6,9,4.24,22-1.11,8.3-4.69,10.75-6.53,11.71-2.47,1.29-6,1.14-8.5.65v4c-3.15,4-8.64,3.74-16.22.53a63.38,63.38,0,0,1,.37-14.6s-3.69,1.68-6.29-1.26a8.34,8.34,0,0,1-.89-9.87,5.3,5.3,0,0,1,5-2.18A4.42,4.42,0,0,1,122.61,91c.24,2.23,1.44,2.61,2.67,1s1.37-3.67,1.34-6.55C134.09,86.25,144.86,82.86,147.28,76.3Z" style="fill:#ffa8a7"></path><path d="M139.4,102.69a1.44,1.44,0,0,1-2.79-.69c.2-.77.77-.43,1.54-.24S139.59,101.92,139.4,102.69Z" style="fill:#b16668"></path><path d="M136.49,110.66c-5.25-.83-12.23-3.07-14-9.15,0,0,0,4.12,1.88,6.53,2.62,3.4,12.13,5.64,12.13,5.64Z" style="fill:#f28f8f"></path><path d="M137.7,91.35a1.68,1.68,0,1,1-3.22,1,1.4,1.4,0,0,1,1.06-1.88A1.61,1.61,0,0,1,137.7,91.35Z" style="fill:#263238"></path><path d="M149.31,92.28a1.72,1.72,0,0,1-1.91,1.5,1.74,1.74,0,0,1-1.43-2c.14-1,1-1.28,1.89-1.15S149.44,91.32,149.31,92.28Z" style="fill:#263238"></path><path d="M150.32,86.36l-3.66-1.28a1.87,1.87,0,0,1,2.41-1.23A2,2,0,0,1,150.32,86.36Z" style="fill:#455a64"></path><path d="M132.67,86.51l3.67-1.23A1.86,1.86,0,0,0,134,84,2,2,0,0,0,132.67,86.51Z" style="fill:#455a64"></path><path d="M182.07,143.23s-.16-1.54,1.83-3.13,4.6-2.91,5.33-6.7l2.88,1.52-4.44,8.16Z" style="fill:#3076E0"></path><path d="M182.07,143.23s-.16-1.54,1.83-3.13,4.6-2.91,5.33-6.7l2.88,1.52-4.44,8.16Z" style="fill:#fff;opacity:0.85"></path><path d="M182.07,143.23s-3.14-1.42-9.82.24-12.13,3.67-25.09,3.89l3.44,1.81,33.55-3.27Z" style="fill:#3076E0"></path><path d="M182.07,143.23s-3.14-1.42-9.82.24-12.13,3.67-25.09,3.89l3.44,1.81,33.55-3.27Z" style="fill:#fff;opacity:0.85"></path><polygon points="147.16 147.36 136.65 186.51 140.09 188.32 150.6 149.17 147.16 147.36" style="fill:#3076E0"></polygon><polygon points="147.16 147.36 136.65 186.51 140.09 188.32 150.6 149.17 147.16 147.36" style="fill:#fff;opacity:0.8"></polygon><polygon points="147.16 147.36 136.65 186.51 140.09 188.32 150.6 149.17 147.16 147.36" style="fill:#3076E0;opacity:0.2"></polygon><g style="opacity:0.30000000000000004"><path d="M189.3,135.48a6.64,6.64,0,0,1-1.3,2.24,19.9,19.9,0,0,1-1.86,1.81,13.41,13.41,0,0,0-1.82,1.79,4.91,4.91,0,0,0-.63,1.08,2.53,2.53,0,0,0-.2,1.15l-.4.08a2.7,2.7,0,0,1,.27-1.37,5.25,5.25,0,0,1,.71-1.13,14,14,0,0,1,1.94-1.76,22.43,22.43,0,0,0,1.92-1.72A6.66,6.66,0,0,0,189.3,135.48Z" style="fill:#3076E0"></path><path d="M188.85,137.68a6.69,6.69,0,0,1-1,1.37c-.37.42-.76.83-1.12,1.26a10.27,10.27,0,0,0-1,1.34,3.54,3.54,0,0,0-.47,1.52l-.42,0a3.85,3.85,0,0,1,.62-1.63,9.36,9.36,0,0,1,1.08-1.33c.39-.41.8-.79,1.19-1.19A6.63,6.63,0,0,0,188.85,137.68Z" style="fill:#3076E0"></path><path d="M160.12,147.14a52.33,52.33,0,0,0,5.45-1c1.8-.44,3.58-1,5.36-1.45a25.63,25.63,0,0,1,5.49-.93,20.13,20.13,0,0,1,2.8,0,9.46,9.46,0,0,1,1.4.21,3.58,3.58,0,0,1,1.34.6l-.27.31a3.16,3.16,0,0,0-1.16-.53,8.73,8.73,0,0,0-1.34-.23,19.4,19.4,0,0,0-2.75,0,25.73,25.73,0,0,0-5.45.82c-1.79.46-3.58.95-5.39,1.35A50.94,50.94,0,0,1,160.12,147.14Z" style="fill:#3076E0"></path><path d="M169,146.62c1-.18,2.06-.43,3.08-.67s2.06-.47,3.1-.65a19.57,19.57,0,0,1,3.15-.33,8.64,8.64,0,0,1,3.18.46l-.15.38a8.55,8.55,0,0,0-3-.53,20.46,20.46,0,0,0-3.12.22c-1,.15-2.07.35-3.11.55S170.05,146.48,169,146.62Z" style="fill:#3076E0"></path></g><polygon points="192.04 132.98 186.86 142.65 175.59 184.64 177.3 185.54 182.39 173.74 193.75 133.88 192.04 132.98" style="fill:#3076E0"></polygon><polygon points="188.58 143.56 193.75 133.88 182.39 173.74 177.3 185.54 188.58 143.56" style="opacity:0.2"></polygon><polygon points="181.46 146.06 148.38 149.48 137.1 191.46 138.82 192.37 171.9 188.95 183.18 146.96 181.46 146.06" style="fill:#3076E0"></polygon><polygon points="150.1 150.38 138.82 192.37 171.9 188.95 183.18 146.96 150.1 150.38" style="opacity:0.2"></polygon><polygon points="148.38 149.48 150.1 150.38 138.82 192.37 137.1 191.46 148.38 149.48" style="opacity:0.35000000000000003"></polygon><path d="M183.18,147l5.4-3.4-11.28,42c-.77,2.27-2.62,3.35-5.4,3.41Z" style="fill:#3076E0"></path><path d="M183.18,147l5.4-3.4-11.28,42c-.87,2.41-2.78,3.39-5.4,3.41Z" style="opacity:0.35000000000000003"></path><path d="M186.67,142.55c-1-.56-3.1-.26-4.6.68s-1.84,2.16-.79,2.72l1.9,1,5.4-3.4-1.72-.91Z" style="fill:#455a64"></path><path d="M186.86,142.65c-.26,1.61-2.26,2.68-5.4,3.41l1.72.9c2.71-.42,4.46-1.59,5.4-3.4Z" style="fill:#3076E0"></path><path d="M108.61,119.5c-8.17,2.6-11,4.39-12.28,13.6-1.5,10.36-2.4,18.47-2.84,35.64-.1,4.07-1.32,9,7.76,11.19,11.65,2.76,28.68,4.26,32.93,4.62,2.72.22,8.72.75,10.83.5,6.63-.8,10.16-4.75,12.24-6.81,1.14-1.14,2.26-2.53,2.24-4.15a5.75,5.75,0,0,1,0-1.55,6.9,6.9,0,0,1,.75-1.35,2.69,2.69,0,0,0,.26-1.67,8,8,0,0,1-.29-1.52c0-1,1-1.8,1.4-2.75a.87.87,0,0,0,.1-.45c-.05-.34-.41-.54-.75-.62a6.82,6.82,0,0,0-4.48,1c-4.18,2.56-6.58,5.73-12.46,5.9-1.4,0-3.09-.52-2.73-1.88l.72-2.68c-3.36.69-5.17,4-7.93,4.56-2.46.51-22.36-6.13-22.36-6.13l1.7-20.43S116.69,126,108.61,119.5Z" style="fill:#ffa8a7"></path><path d="M187.14,157.07a23.47,23.47,0,0,1-2.18,4.27c-.63,1.09-.53,2.37.2,2.68l-2,6.95s1,.11,3-2.25,3.4-6.76,3.78-9.14.67-6.64-1.35-7.66Z" style="fill:#ffa8a7"></path><path d="M120,108.26c0,.66,0,1.36,0,1.36s1.23,2,5.2,3.45c6,2.18,10.43,1.15,11.28-.35v-.94a1.8,1.8,0,0,1,1.44.94,14.38,14.38,0,0,0,2,3.44c.93,1-2.28,6.08-9.22,6.08-7.24,0-13.76-5.37-16.31-5.55l-.65.28s0-.88,1.43-2.32C117,112.82,117.2,108.06,120,108.26Z" style="fill:#455a64"></path><path d="M119,111a2.7,2.7,0,0,1,1.25-1.08,2.65,2.65,0,0,1-.19-.25,2.66,2.66,0,0,0-1,.74,7.5,7.5,0,0,0-1.13,2.68,6.49,6.49,0,0,1-.6,1.47,8.47,8.47,0,0,1-1,1.23,3.06,3.06,0,0,0-.67,1.24l.25.1a5.79,5.79,0,0,1,1.16-1.6,5.54,5.54,0,0,0,1.07-2.09A9.51,9.51,0,0,1,119,111Zm4.85,1.51-.55-.29a1.94,1.94,0,0,0-.72.81,5.9,5.9,0,0,0-.35,1.39,3.31,3.31,0,0,1-.7,1.46,5.62,5.62,0,0,0-1.36,2.17,3.59,3.59,0,0,0-.11,1.13l.28.14a3.87,3.87,0,0,1,.22-1.42,7.39,7.39,0,0,1,1.31-1.88,4.71,4.71,0,0,0,.78-2A1.83,1.83,0,0,1,123.83,112.5Zm2.07.8-.55-.18a2.4,2.4,0,0,0-.68.87c-.4.86-.3,1.88-.77,2.72-.21.37-.52.69-.74,1.06a3.46,3.46,0,0,0-.44,1.07,3.82,3.82,0,0,0,0,1.55l.33.14a4.86,4.86,0,0,1-.1-.55,3.14,3.14,0,0,1,.12-1.22,14.24,14.24,0,0,1,1.18-2,16.27,16.27,0,0,0,.58-2.18A2.13,2.13,0,0,1,125.9,113.3Zm-4-1.93a2.21,2.21,0,0,1-.29-.22c-.92.84-1.15,2.65-1.79,3.57s-1.44,1.34-1.86,2.27a4.14,4.14,0,0,0-.27,1l.28.14a3.11,3.11,0,0,1,.37-1.18c.44-.77,1.23-1.24,1.71-2C120.69,114,120.86,112.15,121.87,111.37ZM133.69,118a6.45,6.45,0,0,1,0-1.7,5.47,5.47,0,0,0-.14-1.33,3.28,3.28,0,0,0-.35-.79l-.27,0a2.92,2.92,0,0,1,.51,1.36c.08.78-.14,1.59,0,2.36a7.74,7.74,0,0,0,.3.93,4.45,4.45,0,0,1,.2,1.41,4.5,4.5,0,0,1-.15,1.16,3.16,3.16,0,0,1-.16.43l.34-.08a6.46,6.46,0,0,0,.19-1.11,5.46,5.46,0,0,0-.06-1.34C134,118.91,133.81,118.49,133.69,118Zm5.55-1.34a9.45,9.45,0,0,0-1.55-1.61c-.6-.67-.4-1.62-.93-2.31a1.72,1.72,0,0,0-.27-.27v.21a1.77,1.77,0,0,1-.12.17,1.62,1.62,0,0,1,.48.75,3.77,3.77,0,0,0,.71,1.77,12.76,12.76,0,0,1,1.4,1.35,3.14,3.14,0,0,1,.47,1.49l.22-.33A3.74,3.74,0,0,0,139.24,116.7Zm-2.79.35a2.76,2.76,0,0,1-.62-1.42,6.24,6.24,0,0,0-.22-1.22,1.9,1.9,0,0,0-.46-.68l-.24.09a2,2,0,0,1,.55.94,7.92,7.92,0,0,0,.46,2A9.57,9.57,0,0,1,137,118.6a3.44,3.44,0,0,1,0,1.91l.34-.24a3.5,3.5,0,0,0,0-1.16A4,4,0,0,0,136.45,117.05Zm-6.71-1.16a16.12,16.12,0,0,1-.34,2.78,7.28,7.28,0,0,0-.65,2.19,4.26,4.26,0,0,0,.13,1.26l.3,0a3.29,3.29,0,0,1-.12-1.74c.15-.72.61-1.33.78-2.06s.06-1.43.18-2.14a7.73,7.73,0,0,1,.69-1.94l-.32,0A4.33,4.33,0,0,0,129.74,115.89Zm-2.72-1c-.32,1-.22,2-.82,2.91a6.69,6.69,0,0,0-1.25,2.22,5.19,5.19,0,0,0-.08,1.14l.3.09a3.22,3.22,0,0,1,0-1.27,8.65,8.65,0,0,1,1.29-2.14,6.25,6.25,0,0,0,.59-2.17,3.23,3.23,0,0,1,.36-1.14,2.09,2.09,0,0,1,.65-.67l-.43-.1A3,3,0,0,0,127,114.94Z" style="fill:#37474f"></path><path d="M154.61,87.26l-.72-.07a21.05,21.05,0,0,0-7.27.39c-2.34.76-3.18,1.58-4.47,1.61s-2.21-.76-4.66-1.42a23.78,23.78,0,0,0-7.75-.07l-.78.1a1.33,1.33,0,0,0-.91,1.32,2.84,2.84,0,0,0,.69,1.51,1.65,1.65,0,0,1,.24.6,25.69,25.69,0,0,0,.8,4.17,4.78,4.78,0,0,0,.94,1.48,5.24,5.24,0,0,0,.5.44l.28.19a4,4,0,0,0,.86.4l.14,0,.23.06.24.06a5.76,5.76,0,0,0,.77.1l.33,0h.41A5.61,5.61,0,0,0,139.89,95c.85-1.6.72-3.84,2.19-3.86h.14l.13,0c1.08.23.87,2.29,1.51,3.76a5.6,5.6,0,0,0,1,1.6l.23.24.13.12.14.11.12.09.14.09.1.07.08,0a4.29,4.29,0,0,0,1.25.49l.11,0a6.74,6.74,0,0,0,1.55.13,4.78,4.78,0,0,0,4.6-3,27,27,0,0,0,1-4.21,1.63,1.63,0,0,1,.29-.56,3,3,0,0,0,.73-1.56A1.21,1.21,0,0,0,154.61,87.26Zm-15.49,6.25a5.11,5.11,0,0,1-1.18,2.23h0a4.67,4.67,0,0,1-3.52,1.34,3.66,3.66,0,0,1-3.29-1.55l-.1-.15-.09-.16s-.05-.1-.08-.14l-.06-.14s0-.07-.05-.1a1,1,0,0,1,0-.1l-.06-.15h0c-.06-.16-.11-.32-.15-.47h0c0-.09-.05-.18-.08-.27s-.07-.32-.09-.45,0-.06,0-.08v-.09c-.21-1.1-.43-3.27.14-3.78s2-1,4.39-.86l.25,0a9.35,9.35,0,0,1,1.08.17l.42.1a9.1,9.1,0,0,1,1,.32l.32.13.35.16.06,0,.13.07a2.07,2.07,0,0,1,.69.57C139.62,90.83,139.43,92.27,139.12,93.51ZM153,92.75a5.16,5.16,0,0,1-2.37,3.6,4.21,4.21,0,0,1-1.78.42,3.64,3.64,0,0,1-3.49-1.58v0l-.06-.1-.06-.12a.21.21,0,0,1,0-.06l-.08-.17-.09-.21a.36.36,0,0,1,0-.09s0,0,0-.06l0-.08a.25.25,0,0,1,0-.07,5.37,5.37,0,0,1-.2-.82c-.2-1.23-.28-2.66.19-3.35s2.24-1.48,3.94-1.72a8.94,8.94,0,0,1,1.09-.11h1l.3,0a4.34,4.34,0,0,1,.54.09l.13,0h0l.09,0,.13,0,.15,0,.26.1,0,0a1.81,1.81,0,0,1,.57.37C153.61,89.44,153.24,91.63,153,92.75Z" style="fill:#455a64"></path><path d="M134.89,96.09a3.18,3.18,0,0,0,3.18-3.18h-6.35A3.18,3.18,0,0,0,134.89,96.09Zm10.84-3.37a3.18,3.18,0,0,0,6.35,0Z" style="fill:#fff;opacity:0.4"></path><path d="M140.37,93.76l.12,5.81,5.68-1.1c-.16-.44-.33-.86-.5-1.27a23.41,23.41,0,0,0-2.47-4.94,6.62,6.62,0,0,0-1-1.14h-.14C141,91.13,140.77,92.44,140.37,93.76Z" style="fill:#f28f8f"></path><path d="M128.83,88l-7.14.87a3.57,3.57,0,0,1,.84,1.63l6.34-.69Z" style="fill:#455a64"></path></g><path d="M124.13,245a1.82,1.82,0,0,0,.46-.06,1.63,1.63,0,0,0,1.1-2l-6.61-22.63a1.63,1.63,0,1,0-3.12.91l6.61,22.63A1.63,1.63,0,0,0,124.13,245Z" style="fill:#37474f"></path><path d="M93.27,227.2a1.83,1.83,0,0,0,.46-.07,1.64,1.64,0,0,0,1.11-2l-6.62-22.63a1.63,1.63,0,0,0-3.12.92L91.71,226A1.64,1.64,0,0,0,93.27,227.2Z" style="fill:#37474f"></path><path d="M66.77,190.77a1.63,1.63,0,0,1,1-1.35l8.53-4.92a5.19,5.19,0,0,1,4.7,0L142.38,220a1.64,1.64,0,0,1,1,1.35v2.55a1.64,1.64,0,0,1-1,1.35l-8.52,4.92a5.19,5.19,0,0,1-4.7,0L67.74,194.68a1.66,1.66,0,0,1-1-1.36Z" style="fill:#37474f"></path><path d="M67.74,189.42l8.53-4.92a5.19,5.19,0,0,1,4.7,0l50.54,29.18v17a4.75,4.75,0,0,1-2.35-.57L67.74,194.68a1.66,1.66,0,0,1-1-1.36v-2.55A1.63,1.63,0,0,1,67.74,189.42Z" style="fill:#263238"></path><path d="M81,184.5,142.38,220a1.64,1.64,0,0,1,1,1.35,1.67,1.67,0,0,1-1,1.36l-8.52,4.92a5.19,5.19,0,0,1-4.7,0L67.74,192.13a1.43,1.43,0,0,1,0-2.71l8.53-4.92A5.19,5.19,0,0,1,81,184.5Z" style="fill:#455a64"></path><path d="M108.55,119.15c-7.23,2.5-10.17,3.72-11.83,10s-2.71,18-3.33,28.28-1.15,16.65.64,19.06,6.06,4.44,17.21,5.67c-1.12-3.33-1.23-11.92,5.42-15.6l-4.19-1.7S114,147.48,114.3,143,115.94,122.43,108.55,119.15Z" style="fill:#455a64"></path></g></g><g id="freepik--Table--inject-2"><g id="freepik--table--inject-2"><g id="freepik--table--inject-2"><path d="M55.7,253.8a1.1,1.1,0,0,1,.64-.9,3.49,3.49,0,0,1,3.12,0,1.11,1.11,0,0,1,.65.9L43.54,322.62h0a.75.75,0,0,1-.45.62,2.4,2.4,0,0,1-2.21,0,.75.75,0,0,1-.45-.62h0Z" style="fill:#455a64"></path><path d="M93.89,253.8a1.1,1.1,0,0,0-.64-.9,3.49,3.49,0,0,0-3.12,0,1.09,1.09,0,0,0-.65.9l16.57,68.82h0a.75.75,0,0,0,.45.62,2.4,2.4,0,0,0,2.21,0,.79.79,0,0,0,.45-.62h0Z" style="fill:#455a64"></path><path d="M77.27,256.08a1.11,1.11,0,0,0-.65-.91,3.49,3.49,0,0,0-3.12,0,1.1,1.1,0,0,0-.64.9l.64,77.62h0a.76.76,0,0,0,.45.62,2.46,2.46,0,0,0,2.21,0,.8.8,0,0,0,.45-.62h0Z" style="fill:#455a64"></path><path d="M114.6,265.39h0c0-5.84-3.83-11.68-11.55-16.14-15.44-8.92-40.48-8.92-55.92,0-7.72,4.46-11.55,10.3-11.54,16.14h0v3.14h0c.09,5.76,4,11.51,11.58,15.91,15.45,8.92,40.48,8.92,55.92,0,7.63-4.4,11.49-10.15,11.58-15.91h0Z" style="fill:#3076E0"></path><path d="M47.1,249.25c-15.44,8.91-15.44,23.37,0,32.28s40.48,8.92,55.92,0,15.45-23.37,0-32.28S62.54,240.33,47.1,249.25Z" style="fill:#3076E0"></path><path d="M47.1,249.25c-15.44,8.91-15.44,23.37,0,32.28s40.48,8.92,55.92,0,15.45-23.37,0-32.28S62.54,240.33,47.1,249.25Z" style="fill:#fff;opacity:0.45"></path></g><g id="freepik--pot--inject-2"><g style="opacity:0.05"><path d="M83.72,266.9c4.93,2.84,4.93,7.45,0,10.3s-12.91,2.84-17.83,0-4.93-7.46,0-10.3S78.8,264.05,83.72,266.9Z"></path></g><path d="M67,272.68c-4.29-4.38-6.81-15.31-2.62-18.78H85.62c4.19,3.47,1.67,14.4-2.62,18.78l-.11.12-.15.14c-.12.12-.25.23-.39.35l-.1.08-.33.24a6.49,6.49,0,0,1-.55.36,14.17,14.17,0,0,1-12.78,0h0c-.19-.11-.37-.23-.56-.36l-.3-.23-.13-.1-.37-.33-.17-.17A.94.94,0,0,1,67,272.68Z" style="fill:#ebebeb"></path><path d="M83.78,252.5c4.85,2.81,4.85,7.36,0,10.16s-12.74,2.8-17.59,0-4.86-7.35,0-10.16S78.92,249.7,83.78,252.5Z" style="fill:#fafafa"></path><path d="M80.33,254.49c3,1.71,3,4.48,0,6.18a11.8,11.8,0,0,1-10.7,0c-3-1.7-3-4.47,0-6.18A11.86,11.86,0,0,1,80.33,254.49Z" style="fill:#ebebeb"></path><path d="M69.63,257.43a11.83,11.83,0,0,1,10.7,0,5,5,0,0,1,1.77,1.63,4.85,4.85,0,0,1-1.77,1.62,11.8,11.8,0,0,1-10.7,0,4.85,4.85,0,0,1-1.77-1.62A4.85,4.85,0,0,1,69.63,257.43Z" style="fill:#e0e0e0"></path><path d="M79.68,259.05a24.52,24.52,0,0,0,3.87-5.15c1.79-3.16,2.12-7.39,1.19-7.92s-4.68,3.71-4.68,3.71a23,23,0,0,0,.39-5.4c-.15-2.82-.84-5.37-1.65-5.89s-2.61,3-3.38,5.61-1.24,4.69-1.24,4.69a39.12,39.12,0,0,0-1.38-5.92c-.94-2.68-1.79-3.28-2.45-3s-1.1,1.51-1.29,5.07a34.46,34.46,0,0,0,.16,5.1s-1.33-1.46-2.8-2.88c-1.62-1.55-2.31-1.76-2.77-1.47s-.59,2.72,1.91,7.25a25.38,25.38,0,0,0,4.73,6.22S73.76,261.28,79.68,259.05Z" style="fill:#3076E0"></path><path d="M79.68,259.05a24.52,24.52,0,0,0,3.87-5.15c1.79-3.16,2.12-7.39,1.19-7.92s-4.68,3.71-4.68,3.71a23,23,0,0,0,.39-5.4c-.15-2.82-.84-5.37-1.65-5.89s-2.61,3-3.38,5.61-1.24,4.69-1.24,4.69a39.12,39.12,0,0,0-1.38-5.92c-.94-2.68-1.79-3.28-2.45-3s-1.1,1.51-1.29,5.07a34.46,34.46,0,0,0,.16,5.1s-1.33-1.46-2.8-2.88c-1.62-1.55-2.31-1.76-2.77-1.47s-.59,2.72,1.91,7.25a25.38,25.38,0,0,0,4.73,6.22S73.76,261.28,79.68,259.05Z" style="opacity:0.30000000000000004"></path></g></g></g><g id="freepik--book--inject-2"><g id="freepik--book--inject-2"><path d="M459.27,343.45a2,2,0,0,1-1.16,1.66L347.5,408.94c-1.56.9-2.83,2.48-2.83,3.54s-1.26,2.63-2.81,3.54l-19.79,11.46c-1.55.9-2.83.77-2.83-.29s-1.26-1.17-2.81-.27L219,483.13a6.23,6.23,0,0,1-5.64,0L74.11,402.72a2,2,0,0,1-1.17-1.62c0-.52,0-3.85,0-4.71a2,2,0,0,0,1.16,1.52l3.77,2.17,135.53,78.25a6.29,6.29,0,0,0,5.64,0l100.18-57.84c1.55-.9,2.82-.78,2.82.27s1.26,1.19,2.82.29l14.19-8.2c1.57-.9,2.83-2.48,2.83-3.54s1.26-2.64,2.82-3.54L454.3,342.49l4.95-3.82h0v.13C459.26,339.48,459.26,342.92,459.27,343.45Z" style="fill:#3076E0"></path><path d="M215.69,479v4.76a5.54,5.54,0,0,1-2.29-.61L74.11,402.72a2,2,0,0,1-1.17-1.62c0-.52,0-3.85,0-4.71a2,2,0,0,0,1.16,1.52l139.3,80.42A5.65,5.65,0,0,0,215.69,479Z" style="opacity:0.15"></path><path d="M213.39,478.32,74.1,397.91c-1.56-.9-1.56-2.36,0-3.26L313.32,256.72a6.26,6.26,0,0,1,5.64,0l139.13,80.32c1.56.9,1.56,2.35,0,3.25l-113.4,65.47c-1.56.9-2.82,2.49-2.82,3.54s-1.26,2.64-2.82,3.54l-14.2,8.2c-1.56.9-2.82.77-2.82-.28s-1.26-1.18-2.82-.28L219,478.32A6.23,6.23,0,0,1,213.39,478.32Z" style="fill:#3076E0"></path><path d="M213.39,478.32,74.1,397.91c-1.56-.9-1.56-2.36,0-3.26L313.32,256.72a6.26,6.26,0,0,1,5.64,0l139.13,80.32c1.56.9,1.56,2.35,0,3.25l-113.4,65.47c-1.56.9-2.82,2.49-2.82,3.54s-1.26,2.64-2.82,3.54l-14.2,8.2c-1.56.9-2.82.77-2.82-.28s-1.26-1.18-2.82-.28L219,478.32A6.23,6.23,0,0,1,213.39,478.32Z" style="fill:#fff;opacity:0.4"></path><polygon points="322.47 417.2 319.85 415.69 340.74 403.61 341.46 404.03 322.47 417.2" style="fill:#37474f"></polygon><path d="M339.73,404.22l-15.56,9a4.22,4.22,0,0,0-2.11,3.12c0,1.05.95,1.36,2.12.68l15.56-9a4.22,4.22,0,0,0,2.11-3.12C341.84,403.85,340.89,403.55,339.73,404.22Z" style="fill:#455a64"></path><g id="freepik--book--inject-2"><path d="M334.73,407.08l0-11c0-5,8.83-19.11,19.88-25.49L444,319l7.9,20.38Z" style="fill:#f5f5f5"></path><path d="M444,319l-89.46,51.65c-11.05,6.36-19.93,20.53-19.89,25.48l.05,11L197.08,327.63v-11c0-5,8.84-19.11,19.89-25.49l89.41-51.61,0,0Z" style="fill:#fafafa"></path><path d="M444,319l-89.46,51.65c-11.05,6.36-19.93,20.53-19.89,25.48l.05,11L197.08,327.63v-11c0-5,8.84-19.11,19.89-25.49l89.45-51.64Z" style="fill:#fafafa"></path><path d="M306.42,240.61,442.16,319l-88.05,50.83c-11.1,6.4-20.4,20.71-20.36,26.3l0,9.33L198,327.08V316.65c0-4.52,8.73-18.5,19.42-24.67l89-51.37m0-1.08L217,291.17c-11.05,6.38-19.93,20.53-19.89,25.49v11l137.66,79.45-.05-11c0-4.95,8.84-19.12,19.89-25.48L444,319,306.42,239.53Z" style="fill:#e0e0e0"></path><path d="M334.7,396.4c0-5-9.1-9.09-20.17-2.75l-89.42,51.24L217.21,475l117.52-67.9S334.74,401.36,334.7,396.4Z" style="fill:#f5f5f5"></path><path d="M400.05,357.87,377.59,370.5c-3.73,2.13-7.45,4.27-11.15,6.45s-7.39,4.41-10.93,6.86a83.16,83.16,0,0,0-10.12,8,32.89,32.89,0,0,0-7.58,10.36,33.47,33.47,0,0,1,7.9-10,82.66,82.66,0,0,1,10.2-7.77c7.16-4.7,14.68-8.87,22.15-13.1l22.35-12.81L411.55,352l11.08-6.56-11.31,6.16Zm-57.7,31.46a59.15,59.15,0,0,1,9.6-9.64,112.77,112.77,0,0,1,11.11-7.9c3.85-2.43,7.85-4.61,11.86-6.8l23.92-13.35,11.92-6.73,11.87-6.83-12.1,6.42-12,6.51-24,13.16c-8,4.37-16,9-23,15a59,59,0,0,0-9.5,9.91,38.12,38.12,0,0,0-6.17,12.19,40,40,0,0,1,2.75-6.25A40.71,40.71,0,0,1,342.35,389.33ZM322.7,406.84a33.94,33.94,0,0,0-5.66,1.82c-3.65,1.53-7.16,3.36-10.63,5.24s-6.87,3.9-10.29,5.85L285.9,425.7c-6.78,4-13.59,8-20.35,12.07s-13.51,8.14-20.21,12.3c6.91-3.81,13.76-7.72,20.6-11.64s13.64-7.91,20.46-11.86,13.58-8,20.4-12a116.39,116.39,0,0,1,10.44-5.46,33.23,33.23,0,0,1,5.52-2,11.85,11.85,0,0,1,2.9-.39,4.17,4.17,0,0,1,2.74.86,4.26,4.26,0,0,0-2.74-1A12.24,12.24,0,0,0,322.7,406.84Zm5-7.47a13.88,13.88,0,0,0-6.28.16,57.32,57.32,0,0,0-11.71,4.52c-3.76,1.84-7.4,3.9-11,6l-10.77,6.36c-7.14,4.31-14.29,8.61-21.38,13L255.91,436c-3.52,2.24-7.06,4.44-10.57,6.7l10.83-6.27,10.77-6.35,21.5-12.8c7.15-4.28,14.23-8.69,21.61-12.53A57.51,57.51,0,0,1,321.52,400a13.57,13.57,0,0,1,6.1-.39,6.75,6.75,0,0,1,4.64,3.77,7.6,7.6,0,0,0-1.79-2.56A6.71,6.71,0,0,0,327.69,399.37Z" style="fill:#e6e6e6"></path><polygon points="217.21 474.98 225.11 444.89 87.5 365.44 79.6 395.52 217.21 474.98" style="fill:#ebebeb"></polygon><path d="M314.54,393.65l-4,2.29-85.43,48.95L103.55,374.7l-16-9.27,89.43-51.23c8.11-4.65,12.64-4.28,15.83-2.47h0l139.5,80.54C327.23,389.43,321.35,390,314.54,393.65Z" style="fill:#fafafa"></path><path d="M187.94,311.42a8.65,8.65,0,0,1,4.35,1.12l133.36,77h-.25c-3.46,0-7.15,1.08-11.32,3.31l-4,2.29-85,48.67L104,373.89l-14.63-8.45,88-50.42c4.22-2.43,7.67-3.6,10.54-3.6m0-.95c-2.74,0-6.26,1-11,3.73L87.5,365.43l16,9.27,121.56,70.19,85.43-48.95,4-2.29a23.48,23.48,0,0,1,10.86-3.18,13.66,13.66,0,0,1,6.86,1.8l-139.5-80.54a9.48,9.48,0,0,0-4.82-1.26Z" style="fill:#e0e0e0"></path><polygon points="218.86 430.92 295.01 386.98 299.02 384.69 301.95 386.38 297.94 388.67 221.78 432.62 218.86 430.92" style="fill:#e0e0e0"></polygon><polygon points="211.82 426.86 287.98 382.92 291.99 380.63 294.92 382.32 290.91 384.61 214.75 428.55 211.82 426.86" style="fill:#e0e0e0"></polygon><polygon points="204.79 422.8 280.95 378.86 284.95 376.57 287.88 378.26 283.88 380.55 207.72 424.49 204.79 422.8" style="fill:#e0e0e0"></polygon><polygon points="197.76 418.74 273.91 374.8 277.92 372.51 280.85 374.2 276.84 376.49 200.69 420.43 197.76 418.74" style="fill:#e0e0e0"></polygon><polygon points="190.72 414.68 266.88 370.74 270.89 368.45 273.82 370.14 269.81 372.43 193.66 416.37 190.72 414.68" style="fill:#e0e0e0"></polygon><polygon points="183.69 410.62 259.85 366.68 263.86 364.39 266.79 366.08 262.78 368.37 186.62 412.31 183.69 410.62" style="fill:#e0e0e0"></polygon><polygon points="176.66 406.56 252.82 362.62 256.82 360.33 259.75 362.02 255.75 364.31 179.59 408.25 176.66 406.56" style="fill:#e0e0e0"></polygon><polygon points="169.63 402.5 245.78 358.56 249.79 356.27 252.72 357.96 248.71 360.25 172.56 404.19 169.63 402.5" style="fill:#e0e0e0"></polygon><polygon points="162.59 398.44 238.75 354.5 242.76 352.21 245.69 353.9 241.68 356.19 165.53 400.13 162.59 398.44" style="fill:#e0e0e0"></polygon><polygon points="155.56 394.38 231.72 350.44 235.73 348.15 238.66 349.84 234.65 352.13 158.49 396.07 155.56 394.38" style="fill:#e0e0e0"></polygon><polygon points="148.53 390.32 224.69 346.38 228.69 344.09 231.62 345.78 227.62 348.07 151.46 392.01 148.53 390.32" style="fill:#e0e0e0"></polygon><polygon points="141.5 386.26 217.65 342.32 221.66 340.03 224.59 341.72 220.58 344.01 144.43 387.95 141.5 386.26" style="fill:#e0e0e0"></polygon><polygon points="134.46 382.2 210.62 338.26 214.63 335.97 217.56 337.66 213.55 339.95 137.39 383.89 134.46 382.2" style="fill:#e0e0e0"></polygon><polygon points="127.43 378.14 203.59 334.2 207.59 331.9 210.53 333.6 206.52 335.89 130.36 379.83 127.43 378.14" style="fill:#e0e0e0"></polygon><polygon points="120.4 374.08 196.56 330.14 200.56 327.85 203.49 329.54 199.49 331.83 123.33 375.77 120.4 374.08" style="fill:#e0e0e0"></polygon><polygon points="113.37 370.02 189.52 326.08 193.53 323.78 196.46 325.48 192.45 327.77 116.3 371.71 113.37 370.02" style="fill:#e0e0e0"></polygon><polygon points="106.33 365.96 182.49 322.02 186.5 319.73 189.43 321.42 185.42 323.71 109.26 367.65 106.33 365.96" style="fill:#e0e0e0"></polygon><polygon points="223.93 449.37 238.67 442 223.5 451.02 211.49 442.4 223.93 449.37" style="fill:#e6e6e6"></polygon><polygon points="221.32 459.32 246.65 444.69 221.63 458.16 193.48 442.89 221.32 459.32" style="fill:#e6e6e6"></polygon><polygon points="83.32 381.35 82.93 382.83 113.97 400.08 83.32 381.35" style="fill:#e6e6e6"></polygon><polygon points="84.56 376.64 103.74 386.44 84.96 375.11 84.56 376.64" style="fill:#e6e6e6"></polygon><path d="M334.67,359.13a45.13,45.13,0,0,0-11.14,9.53L320.67,367a44.57,44.57,0,0,1,11.14-9.53L412,311.29l2.86,1.65Z" style="fill:#e0e0e0"></path><path d="M327.64,355.07a44.57,44.57,0,0,0-11.14,9.53L313.63,363a45.18,45.18,0,0,1,11.14-9.54L405,307.23l2.86,1.65Z" style="fill:#e0e0e0"></path><path d="M341.71,363.19a44.78,44.78,0,0,0-11.14,9.53l-2.86-1.65a44.78,44.78,0,0,1,11.14-9.53L419,315.36l2.86,1.65Z" style="fill:#e0e0e0"></path><path d="M313.56,346.94a45.13,45.13,0,0,0-11.14,9.53l-2.86-1.65a44.78,44.78,0,0,1,11.14-9.53l80.18-46.19,2.86,1.66Z" style="fill:#e0e0e0"></path><path d="M306.52,342.88a44.91,44.91,0,0,0-11.13,9.53l-2.87-1.65a44.92,44.92,0,0,1,11.14-9.53L383.84,295l2.86,1.65Z" style="fill:#e0e0e0"></path><path d="M320.6,351a44.82,44.82,0,0,0-11.14,9.54l-2.86-1.66a44.78,44.78,0,0,1,11.14-9.53l80.17-46.18,2.86,1.65Z" style="fill:#e0e0e0"></path><path d="M292.45,334.75a45.18,45.18,0,0,0-11.14,9.54l-2.86-1.66a44.78,44.78,0,0,1,11.14-9.53l80.18-46.18,2.86,1.65Z" style="fill:#e0e0e0"></path><path d="M278.38,326.63a44.78,44.78,0,0,0-11.14,9.53l-2.86-1.65A44.57,44.57,0,0,1,275.52,325l80.17-46.19,2.86,1.65Z" style="fill:#e0e0e0"></path><path d="M271.34,322.57a44.92,44.92,0,0,0-11.14,9.53l-2.86-1.65a44.82,44.82,0,0,1,11.14-9.54l80.18-46.18,2.86,1.65Z" style="fill:#e0e0e0"></path><path d="M285.41,330.69a45,45,0,0,0-11.13,9.54l-2.87-1.66A45.13,45.13,0,0,1,282.55,329l80.18-46.18,2.86,1.65Z" style="fill:#e0e0e0"></path><path d="M299.49,338.81a44.82,44.82,0,0,0-11.14,9.54l-2.86-1.66a44.78,44.78,0,0,1,11.14-9.53L376.8,291l2.87,1.65Z" style="fill:#e0e0e0"></path><path d="M264.31,318.5A44.82,44.82,0,0,0,253.17,328l-2.87-1.66a45.13,45.13,0,0,1,11.14-9.53l80.18-46.18,2.86,1.65Z" style="fill:#e0e0e0"></path><path d="M250.23,310.38a45.13,45.13,0,0,0-11.14,9.53l-2.86-1.65a44.57,44.57,0,0,1,11.14-9.53l80.18-46.19,2.86,1.65Z" style="fill:#e0e0e0"></path><path d="M236.16,302.25A45,45,0,0,0,225,311.78l-2.86-1.65a44.78,44.78,0,0,1,11.14-9.53l80.17-46.18,2.86,1.65Z" style="fill:#e0e0e0"></path><path d="M229.12,298.19A45.13,45.13,0,0,0,218,307.72l-2.86-1.65a44.57,44.57,0,0,1,11.14-9.53l80.18-46.19L309.3,252Z" style="fill:#e0e0e0"></path><path d="M243.2,306.31a44.82,44.82,0,0,0-11.14,9.54l-2.87-1.66a45.13,45.13,0,0,1,11.14-9.53l80.18-46.18,2.86,1.65Z" style="fill:#e0e0e0"></path><path d="M257.27,314.44A44.57,44.57,0,0,0,246.13,324l-2.86-1.66a45,45,0,0,1,11.14-9.53l80.17-46.18,2.86,1.65Z" style="fill:#e0e0e0"></path><polygon points="445.87 323.69 445.46 322.64 425.27 334.75 445.87 323.69" style="fill:#e6e6e6"></polygon><polygon points="447.32 327.42 412.77 347.86 447.66 328.3 447.32 327.42" style="fill:#e6e6e6"></polygon></g><polygon points="334.73 400.72 322.06 414.42 340.74 403.61 334.73 400.72" style="fill:#37474f"></polygon></g></g><g id="freepik--Glasses--inject-2"><path id="freepik--shadow--inject-2" d="M126.39,355.67,243.27,410.8s42.2-24.38,47.57-27.54,15.35-5.44,20.9-3c3.7-8.72,11.79-16.9,30.93-27.34s27.79-15.37,27.79-15.37L272.2,270.93l-5.65,3.31,91.51,62.31-25.48,14.71c-9.87,5.7-23.69,16.07-26.44,25.73-5.83-2.51-12.85-1.14-22.95,4.42s-39.46,22.78-39.46,22.78l-110.55-52Z" style="opacity:0.15"></path><g id="freepik--glasses--inject-2"><path d="M231.4,372.87,157.52,330.2c-5.81-3.36-11.34-3.72-15.62-1.25L138,331.19a13.47,13.47,0,0,0-4.25,4l-10.47,15.13c-.83,1.21.17,4,1.68,4.69l2.46,1.11a4.74,4.74,0,0,0,4.43,0l3.86-2.23a4.84,4.84,0,0,0,2-2.35l6.91-15.72a7.87,7.87,0,0,1,.8-1.4,8,8,0,0,1,4.85,1.46l77.31,48.82,3.82-2.21Z" style="fill:#37474f"></path><path d="M227.58,375.07l-73.89-42.66c-8-4.64-15.51-3.59-19.93,2.8l-10.47,15.13c-.83,1.21.17,4,1.68,4.69l2.46,1.11c2.8,1.27,5.26.38,6.45-2.34l6.91-15.72c1.71-3.88,5.46-4.73,9.48-2.15l77.31,48.82Z" style="fill:#455a64"></path><path d="M372.06,291.66,298.18,249c-5.82-3.36-11.34-3.72-15.62-1.25L278.67,250a13.37,13.37,0,0,0-4.25,4L264,269.13c-.84,1.21.17,4,1.67,4.69l2.46,1.11a4.74,4.74,0,0,0,4.43,0l3.87-2.22a4.92,4.92,0,0,0,2-2.36l6.91-15.71a7.22,7.22,0,0,1,.8-1.4,7.92,7.92,0,0,1,4.85,1.45l77.3,48.82,3.83-2.21Z" style="fill:#37474f"></path><path d="M368.23,293.87,294.35,251.2c-8-4.64-15.51-3.58-19.93,2.8L264,269.13c-.84,1.21.17,4,1.67,4.69l2.46,1.11c2.81,1.27,5.27.38,6.46-2.34l6.91-15.72c1.71-3.88,5.45-4.73,9.48-2.15l77.3,48.82Z" style="fill:#455a64"></path><path d="M376,293.9l-3.6-2.08a1.06,1.06,0,0,0-1.14.22l-.36.27-1.38-.8a3.59,3.59,0,0,0-3.55.26c-9.36,5-18.46,10.61-27.21,16.45s-17.85,12.2-26,18.82a20.72,20.72,0,0,0-6.94,11.69c-1,1.1-4,2.48-6.51,3.93-1.62.94-3.46,2.15-4.82,2.9a4.67,4.67,0,0,0-.84-.64l-3.59-2.06a4.93,4.93,0,0,0-4.36-.19c-8.84,3.28-17.53,7.12-26,11.18a294,294,0,0,0-27.21,15,12,12,0,0,0-4.59,6.08h0l-.69.29A3.17,3.17,0,0,0,225.6,378v4.64a1.61,1.61,0,0,0,.66,1.47l1.75,1a42,42,0,0,0,3.64,10.51,27,27,0,0,0,3.12,4.7,8.25,8.25,0,0,0,2.26,2l3.7,2.13a8.17,8.17,0,0,0,6.46.66A102.65,102.65,0,0,0,263,398.88a138.79,138.79,0,0,0,19.61-11.61c4.45-3.06,8.08-9.28,9.45-14.31.78-2.86,1.77-6.38,2.71-10.36q.66-2.82,1.12-5.29c1.13-3.77,4.25-6.27,7-7.87a13.79,13.79,0,0,1,3.44-1.5c.27,1.07.58,2.16.94,3.28.93,2.9,1.86,5.3,2.7,7.23a7.27,7.27,0,0,0,3,3.51l3.57,2.06c1.8,1,4.06,1.05,6.52-.09a160,160,0,0,0,19.61-11,147.2,147.2,0,0,0,15.82-12A35.59,35.59,0,0,0,367.32,328c1.09-2.63,2.22-5.6,3.1-8.3a110.71,110.71,0,0,0,3.91-16.22l.53-.39a4.7,4.7,0,0,0,1.61-3.37v-4.64A1.28,1.28,0,0,0,376,293.9Zm-86.6,59.34c-.41,2.47-.91,5-1.51,7.54-.79,3.39-1.67,6.73-2.59,9.89-1.25,4.3-3.77,8.1-6.7,10.12a136.66,136.66,0,0,1-19.19,11.36A102.22,102.22,0,0,1,244,398.24a6.85,6.85,0,0,1-2.85.21s-.06-.06-.09-.1a24.23,24.23,0,0,1-2.79-4.17,40.18,40.18,0,0,1-3.56-10.66c-.72-3.35,1.12-7.79,3.91-9.47,8-4.81,16.33-9.39,24.68-13.47s16.74-7.72,25.39-10.92a3.17,3.17,0,0,1,.5-.15A7.82,7.82,0,0,1,289.4,353.24Zm78-50.45a96.51,96.51,0,0,1-3.57,14.78c-.66,2.09-1.6,4.57-2.79,7.4a26.1,26.1,0,0,1-6.53,9.51,141.61,141.61,0,0,1-15.39,11.68A157.33,157.33,0,0,1,319.88,357a5.94,5.94,0,0,1-2.6.62,6.37,6.37,0,0,1-.5-.94,73.61,73.61,0,0,1-2.59-6.9,54,54,0,0,1-1.5-5.8,10.42,10.42,0,0,1,.79-5.83,11.93,11.93,0,0,1,3.49-4.77c8.24-6.44,16.78-12.64,25.39-18.4,7.95-5.31,16.28-10.38,24.68-15a2.6,2.6,0,0,1,.34-.16A8.14,8.14,0,0,1,367.35,302.79Z" style="fill:#37474f"></path><path d="M374.86,294.12l-.69.51h0c-.94-1.46-2.58-1.85-4.6-.77-9.36,5-18.46,10.61-27.21,16.45s-17.85,12.2-26,18.82a20.7,20.7,0,0,0-6.94,11.68c-1,1.1-4,2.49-6.51,3.94-2.93,1.69-6.54,4.27-6.82,3.42v0c-1.05-3.16-3.56-4.66-6.79-3.47-8.84,3.28-17.53,7.13-26,11.19a296.22,296.22,0,0,0-27.21,15,12.09,12.09,0,0,0-4.6,6.09h0l-.69.29a3.19,3.19,0,0,0-1.61,2.82v4.65c0,1.19.72,1.86,1.61,1.5l.53-.22a44,44,0,0,0,3.9,11.71,26.46,26.46,0,0,0,3.12,4.7,8,8,0,0,0,8.82,2.69A104.26,104.26,0,0,0,263,398.89a140.15,140.15,0,0,0,19.61-11.61c4.45-3.07,8.08-9.29,9.45-14.32.78-2.87,1.78-6.38,2.71-10.37.44-1.88.81-3.64,1.12-5.31v0c1.13-3.77,4.25-6.27,7-7.87,2.54-1.47,5.36-2.51,6.69-.78.33,1.48.78,3,1.29,4.63a72.33,72.33,0,0,0,2.71,7.23c1.74,4,5.31,5.34,9.45,3.41a158,158,0,0,0,19.61-11,144.84,144.84,0,0,0,15.82-12A35.45,35.45,0,0,0,367.31,328c1.1-2.63,2.23-5.6,3.12-8.3a110.37,110.37,0,0,0,3.9-16.22l.53-.39a4.7,4.7,0,0,0,1.61-3.36v-4.65C376.47,293.89,375.75,293.46,374.86,294.12ZM293,355.32c-.4,2.47-.91,5-1.5,7.53-.8,3.4-1.67,6.74-2.59,9.9-1.25,4.3-3.76,8.1-6.69,10.12A138.72,138.72,0,0,1,263,394.23a101.55,101.55,0,0,1-15.39,6.08,5.91,5.91,0,0,1-6.54-2,23.56,23.56,0,0,1-2.78-4.17,39.85,39.85,0,0,1-3.57-10.66c-.72-3.35,1.12-7.79,3.91-9.47,8-4.82,16.32-9.39,24.68-13.46,8.2-4,16.75-7.73,25.39-10.93a2.9,2.9,0,0,1,3.49.75A6.38,6.38,0,0,1,293,355.32Zm78-50.45a97.7,97.7,0,0,1-3.57,14.78c-.66,2.08-1.6,4.57-2.78,7.39a26.07,26.07,0,0,1-6.54,9.51,142.68,142.68,0,0,1-15.39,11.69,156.65,156.65,0,0,1-19.2,10.8c-2.93,1.38-5.44.47-6.69-2.38-.92-2.11-1.79-4.44-2.59-6.92a53.25,53.25,0,0,1-1.5-5.79,10.42,10.42,0,0,1,.79-5.83,12,12,0,0,1,3.49-4.78c8.24-6.43,16.77-12.63,25.39-18.38,8-5.32,16.28-10.39,24.68-15C369.81,298.38,371.67,300.69,371,304.87Z" style="fill:#455a64"></path><path d="M368.58,299.45a3.38,3.38,0,0,0-1.54.47c-8.4,4.65-16.73,9.72-24.68,15-8.61,5.76-17.15,12-25.39,18.4a11.93,11.93,0,0,0-3.49,4.77,10.42,10.42,0,0,0-.79,5.83,54,54,0,0,0,1.5,5.8,73.61,73.61,0,0,0,2.59,6.9,2.85,2.85,0,0,0,4.9,1.48,157.27,157.27,0,0,0,19.19-10.8,141.4,141.4,0,0,0,15.39-11.69,26.11,26.11,0,0,0,6.54-9.5c1.18-2.83,2.13-5.32,2.78-7.4A97.64,97.64,0,0,0,369.16,304C369.5,301.94,369.26,300.37,368.58,299.45Zm-78.26,50a3.74,3.74,0,0,0-1.61.25c-8.65,3.2-17.19,6.94-25.39,10.93-8.35,4.07-16.67,8.65-24.68,13.46-2.79,1.68-4.63,6.12-3.91,9.47a40.18,40.18,0,0,0,3.56,10.66,24.23,24.23,0,0,0,2.79,4.17,6.31,6.31,0,0,0,1.15,1.11s0,0,0,0a6.49,6.49,0,0,0,3.57-.06,102.64,102.64,0,0,0,15.39-6.09A136.76,136.76,0,0,0,280.41,382c2.93-2,5.44-5.82,6.69-10.12.93-3.16,1.79-6.5,2.59-9.9.59-2.52,1.1-5.06,1.51-7.53a6.43,6.43,0,0,0-.8-4.91Z" style="fill:#3076E0;opacity:0.2"></path><path d="M368.58,299.45a3.38,3.38,0,0,0-1.54.47c-8.4,4.65-16.73,9.72-24.68,15-8.61,5.76-17.15,12-25.39,18.4a11.93,11.93,0,0,0-3.49,4.77,10.42,10.42,0,0,0-.79,5.83,54,54,0,0,0,1.5,5.8,73.61,73.61,0,0,0,2.59,6.9,2.85,2.85,0,0,0,4.9,1.48,157.27,157.27,0,0,0,19.19-10.8,141.4,141.4,0,0,0,15.39-11.69,26.11,26.11,0,0,0,6.54-9.5c1.18-2.83,2.13-5.32,2.78-7.4A97.64,97.64,0,0,0,369.16,304C369.5,301.94,369.26,300.37,368.58,299.45Zm-78.26,50a3.74,3.74,0,0,0-1.61.25c-8.65,3.2-17.19,6.94-25.39,10.93-8.35,4.07-16.67,8.65-24.68,13.46-2.79,1.68-4.63,6.12-3.91,9.47a40.18,40.18,0,0,0,3.56,10.66,24.23,24.23,0,0,0,2.79,4.17,6.31,6.31,0,0,0,1.15,1.11s0,0,0,0a6.49,6.49,0,0,0,3.57-.06,102.64,102.64,0,0,0,15.39-6.09A136.76,136.76,0,0,0,280.41,382c2.93-2,5.44-5.82,6.69-10.12.93-3.16,1.79-6.5,2.59-9.9.59-2.52,1.1-5.06,1.51-7.53a6.43,6.43,0,0,0-.8-4.91Z" style="fill:#fff;opacity:0.2"></path><path d="M273.8,380.7c-7.94,7.53-23.29,17.95-33.69,7,9.08,12.63,26.26,2.09,34-6.2,3.53-3.77,8.63-13.15,9.55-14.88C282.67,368.3,277.39,377.29,273.8,380.7Zm54.47-31.46c-3.52.52-9.63-2.62-10-2.8.33.26,6.06,4.28,9.68,3.95,15.82-1.43,28.7-19.16,34-33.07C355,331,344.08,346.87,328.27,349.24Z" style="fill:#fff"></path><path d="M273.8,380.7c3.59-3.41,8.87-12.4,9.85-14.08L240.11,387.7C250.51,398.65,265.86,388.23,273.8,380.7Zm44.48-34.27h0c.35.18,6.46,3.32,10,2.8C344.08,346.87,355,331,362,317.32Z" style="fill:#fff;opacity:0.7000000000000001"></path></g></g><g id="freepik--speech-bubble--inject-2"><g id="freepik--speech-bubble--inject-2"><g id="freepik--speech-bubble--inject-2"><path d="M223.07,109.68a28.26,28.26,0,0,1-20.69,2l-3-1.08A28.27,28.27,0,0,1,216.74,57l3.1.93a28.27,28.27,0,0,1,3.23,51.79Z" style="fill:#fff"></path><path d="M237.57,70.54a30.69,30.69,0,0,0-56.63,23.11l-6.35,7.11a1.78,1.78,0,0,0,1.51,3l9.48-1a30.69,30.69,0,0,0,52-32.22Zm-14.5,39.14a28.26,28.26,0,0,1-20.69,2l-3-1.08A28.27,28.27,0,0,1,216.74,57l3.1.93a28.27,28.27,0,0,1,3.23,51.79Z" style="fill:#3076E0"></path><path d="M223.07,109.68a28.26,28.26,0,0,1-20.69,2l-3-1.08A28.27,28.27,0,0,1,216.74,57l3.1.93a28.27,28.27,0,0,1,3.23,51.79Z" style="fill:#fff;opacity:0.7000000000000001"></path><path d="M195.67,90.59c0-5.64,4.2-8.22,10.74-9.12,2.4-.3,3.72-.42,6.12-.54V76.37c0-3.9-1.38-5.58-4.44-5.58a8.77,8.77,0,0,0-5,1.44,9.77,9.77,0,0,1,1.5,3.42c0,1.38-1,3.24-4.56,3.24-2.76,0-4.08-1.62-4.08-3.84,0-4.5,6.18-8.4,13.14-8.4,7.14,0,12,2.58,12,11.82v12.9c0,2.46,1,3.36,4.8,2.28l.84,3a11,11,0,0,1-7,2.46,5.71,5.71,0,0,1-5.88-4.68c-2,3.12-4.8,4.68-8.94,4.68C199.93,99.11,195.67,96.53,195.67,90.59Zm16.86-1.8v-4a21.77,21.77,0,0,0-4.26.42c-2.46.54-3.78,2-3.78,4.44,0,2.7,1.5,4.08,3.84,4.08S212.53,92.45,212.53,88.79Z" style="fill:#455a64"></path></g></g></g></svg>
