<svg width="96" height="96" viewBox="0 0 96 96" fill="none" xmlns="http://www.w3.org/2000/svg">
<path d="M87.6585 0H8.34148C3.73461 0 0 3.73461 0 8.34148V87.6585C0 92.2654 3.73461 96 8.34148 96H87.6585C92.2654 96 96 92.2654 96 87.6585V8.34148C96 3.73461 92.2654 0 87.6585 0Z" fill="#DDB892"/>
<path d="M78.1232 39.6741V49.4649L65.2721 52.6972L56.7064 54.621L49.6735 56.3258V52.5721C49.6735 49.1417 52.0091 46.1544 55.3405 45.3306L78.1284 39.6741H78.1232Z" fill="#121919"/>
<path d="M17.8769 39.6741V49.4649L30.7279 52.6972L39.2936 54.621L46.3265 56.3258V52.5721C46.3265 49.1417 43.9909 46.1544 40.6595 45.3306L17.8716 39.6741H17.8769Z" fill="#121919"/>
</svg>
