<svg
						width="296"
						height="96"
						viewBox="0 0 296 96"
						fill="none"
						xmlns="http://www.w3.org/2000/svg"
					>
						<g clip-path="url(#clip0_549_49)">
							<path
								d="M83.5041 0H11.2777C5.04947 0 0 5.11437 0 11.4226V84.5774C0 90.8856 5.04947 96 11.2777 96H83.5041C89.7322 96 94.7817 90.8856 94.7817 84.5774V11.4226C94.7817 5.11437 89.7322 0 83.5041 0ZM59.7288 73.4676L57.0162 62.535H37.7037L34.9911 73.4676C30.8424 73.4676 27.8004 69.5262 28.7938 65.4493L39.253 22.5272H55.4772L58.406 34.4712C59.3891 38.4751 56.3986 42.3486 52.3219 42.3486L49.2387 29.4454H45.5636L42.4443 42.3486L40.7715 49.2669L39.3251 55.2519H55.4L53.9691 49.2669H57.1243C60.0017 49.2669 62.5135 51.2532 63.2084 54.0841L67.9593 73.4676H59.7391H59.7288Z"
								fill="#121919"
							/>
							<path
								d="M132.475 35.9153C137.515 35.9153 141.149 37.3386 143.377 40.1904C145.606 43.0421 146.718 48.0835 146.718 55.3249C146.718 62.5664 145.395 67.6078 142.755 70.4595C140.109 73.3112 135.461 74.7345 128.805 74.7345C126.505 74.7345 122.86 74.5103 117.868 74.0672L115.371 73.843V21.2656H123.298V38.1467C126.674 36.6609 129.732 35.9153 132.475 35.9153ZM128.805 67.5191C132.723 67.5191 135.327 66.5911 136.624 64.7299C137.921 62.8688 138.57 59.7094 138.57 55.2467C138.57 50.784 138.019 47.6508 136.918 45.8417C135.816 44.0326 134.02 43.1255 131.523 43.1255C129.176 43.1255 126.824 43.4957 124.477 44.2412L123.303 44.6113V67.2167C125.995 67.4149 127.827 67.5139 128.811 67.5139L128.805 67.5191Z"
								fill="#121919"
							/>
							<path
								d="M156.739 40.7481C159.261 37.5262 163.456 35.9153 169.329 35.9153C175.203 35.9153 179.398 37.5262 181.92 40.7481C184.442 43.97 185.703 48.8029 185.703 55.2467C185.703 61.6905 184.478 66.5494 182.033 69.8234C179.583 73.0974 175.352 74.7292 169.329 74.7292C163.307 74.7292 159.076 73.0922 156.626 69.8234C154.176 66.5494 152.956 61.6957 152.956 55.2467C152.956 48.7977 154.217 43.97 156.739 40.7481ZM162.72 64.9176C163.848 66.8987 166.051 67.8944 169.329 67.8944C172.608 67.8944 174.811 66.9039 175.939 64.9176C177.066 62.9365 177.627 59.6885 177.627 55.1737C177.627 50.6588 177.025 47.463 175.83 45.581C174.631 43.6989 172.464 42.7553 169.335 42.7553C166.205 42.7553 164.038 43.6989 162.839 45.581C161.639 47.463 161.042 50.6641 161.042 55.1737C161.042 59.6833 161.603 62.9312 162.731 64.9176H162.72Z"
								fill="#121919"
							/>
							<path
								d="M195.653 40.7481C198.176 37.5262 202.371 35.9153 208.244 35.9153C214.117 35.9153 218.312 37.5262 220.834 40.7481C223.356 43.97 224.617 48.8029 224.617 55.2467C224.617 61.6905 223.392 66.5494 220.947 69.8234C218.497 73.0974 214.266 74.7292 208.244 74.7292C202.221 74.7292 197.99 73.0922 195.54 69.8234C193.09 66.5494 191.87 61.6957 191.87 55.2467C191.87 48.7977 193.131 43.97 195.653 40.7481ZM201.634 64.9176C202.762 66.8987 204.965 67.8944 208.244 67.8944C211.522 67.8944 213.725 66.9039 214.853 64.9176C215.98 62.9365 216.541 59.6885 216.541 55.1737C216.541 50.6588 215.939 47.463 214.745 45.581C213.545 43.6989 211.378 42.7553 208.249 42.7553C205.119 42.7553 202.952 43.6989 201.753 45.581C200.554 47.463 199.956 50.6641 199.956 55.1737C199.956 59.6833 200.518 62.9312 201.645 64.9176H201.634Z"
								fill="#121919"
							/>
							<path
								d="M240.547 73.916H232.543V21.2656H240.547V51.6807L245.097 51.2324L253.76 36.7339H262.716L252.144 54.1363L263.303 73.916H254.275L245.318 58.2236L240.547 58.7449V73.916Z"
								fill="#121919"
							/>
							<path
								d="M294.656 44.3925C288.88 43.6 284.696 43.2038 282.101 43.2038C279.507 43.2038 277.706 43.5114 276.707 44.1318C275.703 44.7522 275.204 45.7323 275.204 47.067C275.204 48.4016 275.755 49.3452 276.856 49.8926C277.958 50.4401 280.552 51.0709 284.639 51.7903C288.726 52.5098 291.624 53.6359 293.338 55.1738C295.052 56.7118 295.906 59.4384 295.906 63.3537C295.906 67.269 294.671 70.1468 292.2 71.9819C289.73 73.8171 286.116 74.7346 281.371 74.7346C278.385 74.7346 274.617 74.3123 270.062 73.4678L267.787 73.0976L268.08 66.3306C273.953 67.123 278.184 67.5192 280.784 67.5192C283.383 67.5192 285.226 67.196 286.327 66.5548C287.429 65.9135 287.98 64.8447 287.98 63.3589C287.98 61.8731 287.455 60.8408 286.399 60.2726C285.344 59.7043 282.827 59.0839 278.838 58.4114C274.849 57.7441 271.925 56.691 270.067 55.252C268.204 53.8131 267.277 51.1856 267.277 47.3693C267.277 43.5531 268.564 40.7014 271.133 38.8193C273.701 36.9373 276.995 35.9937 281.005 35.9937C284.135 35.9937 287.98 36.3899 292.53 37.1823L294.805 37.6307L294.656 44.3977V44.3925Z"
								fill="#121919"
							/>
						</g>
						<defs>
							<clipPath id="clip0_549_49">
								<rect
									width="295.906"
									height="96"
									fill="white"
								/>
							</clipPath>
						</defs>
					</svg>